<svg width="532" height="442" viewBox="0 0 532 442" fill="none" xmlns="http://www.w3.org/2000/svg">
<path d="M0.130615 272.631C175.358 272.631 350.586 272.631 531.123 272.631C531.123 300.434 531.123 328.237 531.123 356.882C511.901 356.882 492.68 356.882 472.875 356.882C472.875 384.685 472.875 412.488 472.875 441.134C337.808 441.134 202.74 441.134 63.5793 441.134C63.5793 413.159 63.5793 385.185 63.5793 356.362C42.6412 356.362 21.7032 356.362 0.130615 356.362C0.130615 328.731 0.130615 301.099 0.130615 272.631Z" fill="#B48EF9"/>
<path d="M125.468 0.633662C171.463 0.633662 217.458 0.633662 264.847 0.633662C264.931 53.7241 264.931 53.7241 264.948 75.9221C264.952 81.0026 264.957 86.0831 264.961 91.1636C264.962 91.8003 264.962 92.437 264.963 93.093C264.972 103.358 264.988 113.624 265.007 123.889C265.027 134.432 265.038 144.975 265.043 155.518C265.045 162.019 265.054 168.519 265.071 175.019C265.082 179.483 265.086 183.947 265.083 188.41C265.082 190.982 265.084 193.553 265.095 196.124C265.176 215.641 263.266 232.134 249.05 246.985C239.287 256.429 225.991 261.302 212.51 261.373C211.935 261.38 211.36 261.387 210.768 261.394C208.886 261.414 207.005 261.427 205.124 261.437C204.478 261.441 203.833 261.446 203.168 261.45C200.108 261.469 197.049 261.484 193.99 261.493C190.47 261.503 186.95 261.531 183.43 261.573C180.37 261.608 177.309 261.62 174.248 261.624C172.949 261.63 171.651 261.642 170.352 261.661C168.541 261.686 166.731 261.685 164.919 261.678C164.115 261.698 164.115 261.698 163.295 261.718C159.742 261.667 159.742 261.667 158.372 260.274C157.702 259.215 157.17 258.177 156.672 257.029C156.437 256.62 156.201 256.212 155.959 255.791C155.684 255.285 155.684 255.285 155.404 254.768C155.19 254.374 154.975 253.98 154.754 253.574C154.529 253.159 154.304 252.743 154.072 252.316C151.98 248.483 149.856 244.671 147.701 240.874C145.219 236.498 142.762 232.109 140.322 227.71C133.839 216.022 127.288 204.374 120.696 192.747C117.332 186.81 114.002 180.855 110.693 174.887C107.775 169.629 104.821 164.392 101.855 159.161C101.009 157.667 100.164 156.172 99.3199 154.676C96.3535 149.42 93.3746 144.171 90.3764 138.933C87.5796 134.044 84.8089 129.14 82.0418 124.233C81.3056 122.928 80.5686 121.624 79.8315 120.319C79.4089 119.57 78.9863 118.821 78.5638 118.072C78.3753 117.739 78.1868 117.405 77.9926 117.062C77.2974 115.828 76.614 114.596 75.9899 113.325C75.3313 112.04 74.7438 111.564 73.4606 110.889C70.6701 110.623 68.9758 110.656 66.6997 112.449C65.7213 114.406 65.9142 116.559 66.1796 118.69C66.8377 120.442 67.7806 121.956 68.78 123.533C69.3564 124.49 69.9313 125.448 70.5047 126.408C70.8146 126.92 71.1244 127.433 71.4436 127.961C73.0325 130.645 74.5233 133.382 76.0186 136.118C76.905 137.739 77.7962 139.357 78.6877 140.976C78.8622 141.292 79.0367 141.609 79.2164 141.935C81.3884 145.873 83.6082 149.783 85.8265 153.695C89.7828 160.673 93.6904 167.679 97.5789 174.695C99.3422 177.876 101.135 181.039 102.946 184.192C104.201 186.388 105.429 188.598 106.66 190.806C109.391 195.705 112.157 200.578 115.001 205.412C118.083 210.655 121.036 215.96 123.962 221.291C126.373 225.685 128.819 230.058 131.292 234.418C133.704 238.671 136.096 242.935 138.48 247.203C139.835 249.627 141.192 252.049 142.569 254.461C142.791 254.85 143.013 255.24 143.241 255.641C143.644 256.349 144.05 257.056 144.457 257.761C145.751 260.033 145.751 260.033 145.751 261.189C97.6959 261.189 49.6414 261.189 0.130598 261.189C0.0886478 206.188 0.0886478 206.188 0.07981 183.211C0.0777736 177.952 0.075672 172.693 0.0734614 167.434C0.0731871 166.775 0.0729108 166.116 0.0726282 165.437C0.0681074 154.804 0.0599073 144.171 0.0503449 133.537C0.0406094 122.62 0.034845 111.703 0.0327357 100.787C0.0313102 94.0531 0.0268079 87.3198 0.0183483 80.5864C0.0128397 75.9657 0.011191 71.345 0.0125394 66.7243C0.013204 64.0606 0.0122002 61.3969 0.00660354 58.7331C0.00150725 56.2896 0.00131628 53.8461 0.00484976 51.4025C0.00528588 50.5233 0.00398988 49.644 0.000699417 48.7647C-0.0446546 35.8855 2.09909 24.2694 11.3016 14.6559C20.024 5.91388 29.8049 0.887782 42.3014 0.777266C43.0626 0.763339 43.8237 0.748665 44.5848 0.73331C47.0556 0.687418 49.5264 0.662801 51.9975 0.639757C52.8541 0.630637 53.7106 0.621417 54.5671 0.612098C58.1297 0.574641 61.6923 0.542297 65.2551 0.524794C70.3371 0.499819 75.4167 0.444315 80.4978 0.345634C84.0866 0.278344 87.6747 0.245181 91.2642 0.237272C93.4023 0.231722 95.538 0.211747 97.6755 0.155367C110.61 -0.168949 110.61 -0.168949 113.672 2.01337C115.519 4.05946 116.503 6.30116 117.306 8.91285C117.844 10.5276 118.667 11.8651 119.548 13.3185C120.113 14.3338 120.678 15.3496 121.242 16.3658C123.758 20.8784 126.296 25.3763 128.866 29.8581C130.476 32.6661 132.072 35.4812 133.659 38.3015C136.242 42.8885 138.86 47.4514 141.525 51.9907C144.489 57.0431 147.353 62.1461 150.187 67.2728C152.418 71.308 154.683 75.3218 156.978 79.3208C158.853 82.5865 160.707 85.8628 162.555 89.1433C164.977 93.4389 167.43 97.715 169.901 101.983C172.804 106.997 175.656 112.037 178.479 117.097C180.687 121.054 182.925 124.995 185.18 128.926C186.502 131.234 187.815 133.545 189.111 135.868C191.237 139.678 193.413 143.46 195.612 147.229C195.904 147.733 196.195 148.238 196.495 148.758C196.771 149.228 197.047 149.698 197.331 150.183C197.576 150.603 197.822 151.024 198.074 151.458C198.801 152.634 198.801 152.634 200.358 153.535C202.955 153.775 204.518 153.579 206.599 151.974C208.103 149.718 208.035 147.855 207.639 145.213C207.079 144.123 207.079 144.123 206.294 143.113C204.228 140.17 202.537 137.054 200.813 133.902C200.121 132.646 199.428 131.391 198.735 130.135C198.563 129.824 198.391 129.512 198.214 129.192C196.667 126.392 195.091 123.61 193.5 120.835C193.248 120.396 192.996 119.958 192.737 119.506C192.235 118.63 191.732 117.755 191.229 116.88C185.999 107.774 180.797 98.651 175.685 89.4785C172.398 83.5818 169.063 77.7194 165.646 71.8971C163.137 67.613 160.704 63.2893 158.287 58.9534C155.641 54.2093 152.953 49.4911 150.251 44.779C148.586 41.8751 146.924 38.9693 145.263 36.0635C145.086 35.7533 144.908 35.4432 144.725 35.1236C142.071 30.4817 139.436 25.829 136.815 21.168C135.33 18.5352 133.823 15.9176 132.29 13.3124C131.954 12.7421 131.619 12.1717 131.273 11.5841C130.624 10.4833 129.972 9.38381 129.318 8.28592C129.026 7.79133 128.734 7.29674 128.434 6.78716C128.174 6.35127 127.915 5.91538 127.648 5.46628C127.074 4.36201 126.745 3.41001 126.508 2.19388C126.165 2.19388 125.821 2.19388 125.468 2.19388C125.468 1.679 125.468 1.16413 125.468 0.633662Z" fill="#B38DF9"/>
<path d="M333.056 0.571012C333.912 0.570785 334.767 0.570329 335.623 0.569666C337.967 0.568506 340.31 0.570579 342.654 0.573191C345.184 0.57544 347.714 0.574676 350.244 0.574282C354.625 0.574009 359.006 0.575638 363.387 0.578566C369.721 0.582796 376.055 0.584147 382.389 0.584801C392.666 0.585938 402.944 0.589398 413.221 0.594319C423.203 0.599094 433.185 0.602775 443.167 0.604985C443.783 0.605121 444.398 0.605258 445.033 0.605399C448.12 0.606077 451.208 0.606735 454.296 0.607381C479.905 0.612771 505.514 0.622358 531.123 0.633553C531.123 24.3176 531.123 48.0016 531.123 72.4034C514.518 72.4054 514.518 72.4054 497.576 72.4074C490.578 72.4152 483.579 72.4237 476.58 72.4359C472.904 72.4422 469.228 72.4483 465.552 72.4541C464.861 72.4553 464.861 72.4553 464.156 72.4564C456.718 72.468 449.279 72.4686 441.84 72.4652C434.207 72.4619 426.573 72.4704 418.94 72.4899C414.229 72.5016 409.519 72.504 404.808 72.4947C401.578 72.4892 398.348 72.4951 395.118 72.5101C393.255 72.5183 391.391 72.5216 389.527 72.5112C387.506 72.5001 385.485 72.5131 383.464 72.5284C382.581 72.5178 382.581 72.5178 381.681 72.507C378.453 72.5547 376.531 72.923 374.149 75.1688C372.959 76.884 373.219 78.175 373.542 80.2044C374.268 81.7227 374.957 82.6602 376.142 83.8449C377.316 84.0048 377.316 84.0048 378.698 83.981C379.242 83.9849 379.786 83.9888 380.346 83.9928C380.948 83.9918 381.55 83.9908 382.17 83.9898C383.124 83.9943 383.124 83.9943 384.097 83.9989C385.868 84.0062 387.639 84.0089 389.409 84.0096C391.316 84.0115 393.224 84.0194 395.131 84.0266C398.437 84.0382 401.744 84.046 405.05 84.0512C409.831 84.0588 414.611 84.0721 419.391 84.0867C427.147 84.1104 434.902 84.1295 442.658 84.1456C450.193 84.1613 457.728 84.1791 465.263 84.1999C465.959 84.2019 465.959 84.2019 466.67 84.2038C468.998 84.2103 471.327 84.2167 473.656 84.2232C492.985 84.2771 512.314 84.3235 531.643 84.365C531.691 99.8724 531.728 115.38 531.749 130.887C531.752 132.724 531.755 134.561 531.757 136.397C531.758 136.763 531.759 137.129 531.759 137.505C531.768 143.402 531.784 149.298 531.804 155.194C531.823 161.258 531.835 167.321 531.839 173.385C531.842 176.785 531.848 180.185 531.863 183.585C531.877 186.795 531.882 190.004 531.878 193.213C531.879 194.382 531.883 195.552 531.891 196.721C531.95 205.778 531.415 214.737 528.003 223.224C527.746 223.912 527.49 224.601 527.237 225.29C524.31 232.933 520.189 239.187 514.481 245.067C514.053 245.543 514.053 245.543 513.617 246.028C507.801 252.302 499.212 256.709 491.078 259.109C490.664 259.281 490.251 259.452 489.825 259.629C484.706 261.603 479.047 261.336 473.648 261.314C472.791 261.315 471.934 261.316 471.076 261.317C468.737 261.319 466.397 261.315 464.057 261.31C461.528 261.305 458.999 261.307 456.47 261.308C452.093 261.308 447.716 261.305 443.339 261.299C437.012 261.291 430.684 261.288 424.356 261.287C414.088 261.284 403.82 261.277 393.553 261.268C383.581 261.258 373.61 261.251 363.638 261.246C363.023 261.246 362.408 261.246 361.774 261.245C358.688 261.244 355.603 261.243 352.517 261.242C326.934 261.231 301.351 261.212 275.768 261.189C275.768 235.446 275.768 209.702 275.768 183.179C286.513 183.159 297.257 183.14 308.327 183.12C315.118 183.104 321.908 183.088 328.699 183.07C332.264 183.06 335.83 183.051 339.396 183.042C339.843 183.041 340.29 183.04 340.751 183.039C347.97 183.02 355.189 183.007 362.408 182.996C369.815 182.985 377.221 182.968 384.628 182.945C389.2 182.931 393.771 182.922 398.343 182.919C401.476 182.916 404.61 182.908 407.743 182.895C409.552 182.887 411.361 182.883 413.17 182.885C415.13 182.886 417.089 182.877 419.049 182.866C419.623 182.868 420.196 182.871 420.786 182.873C424.485 182.89 424.485 182.89 427.629 181.098C429.017 179.017 429.103 177.305 428.669 174.857C427.534 173.424 426.655 172.55 425.029 171.737C424.21 171.686 423.39 171.667 422.57 171.665C422.048 171.662 421.526 171.659 420.988 171.656C420.121 171.655 420.121 171.655 419.237 171.655C418.321 171.651 418.321 171.651 417.387 171.647C415.688 171.64 413.988 171.636 412.289 171.633C410.458 171.628 408.628 171.621 406.797 171.615C403.623 171.603 400.45 171.594 397.276 171.586C392.688 171.574 388.099 171.559 383.511 171.544C376.067 171.519 368.623 171.497 361.179 171.476C353.947 171.455 346.714 171.434 339.482 171.411C338.814 171.408 338.814 171.408 338.132 171.406C335.897 171.399 333.661 171.392 331.426 171.385C312.873 171.326 294.321 171.27 275.768 171.217C275.721 155.692 275.684 140.167 275.662 124.641C275.659 122.803 275.657 120.965 275.654 119.127C275.653 118.761 275.653 118.395 275.652 118.018C275.643 112.115 275.627 106.211 275.608 100.308C275.588 94.2382 275.577 88.1685 275.572 82.0988C275.57 78.6947 275.563 75.2906 275.548 71.8864C275.534 68.6747 275.53 65.463 275.533 62.2512C275.532 61.0798 275.528 59.9084 275.52 58.737C275.458 49.2428 276.107 39.9381 280.449 31.3177C280.678 30.8465 280.907 30.3752 281.144 29.8896C287.116 18.2581 297.727 8.05276 310.188 3.69507C317.868 1.25344 325.026 0.555155 333.056 0.571012Z" fill="#B38DF9"/>
</svg>
