<svg width="90" height="57" viewBox="0 0 90 57" fill="none" xmlns="http://www.w3.org/2000/svg">
<path d="M75.5197 2.25074C75.6738 2.33275 75.8291 2.41179 75.985 2.49021C78.3856 3.71203 80.5105 5.50666 82.1907 7.60596C82.2448 7.67036 82.299 7.73476 82.3548 7.8011C84.3528 10.2042 85.7175 13.3794 86.0854 16.4813C86.1141 16.7134 86.1557 16.9376 86.2045 17.1661C86.5671 18.916 86.4275 20.8195 86.2202 22.5842C86.2103 22.6707 86.2103 22.6707 86.2003 22.7589C86.1126 23.5134 85.9684 24.2378 85.7733 24.9711C85.694 25.2782 85.6323 25.5846 85.5804 25.8973C85.5216 26.1378 85.4336 26.3607 85.3449 26.5915C85.2653 26.8103 85.2045 27.0315 85.1441 27.2563C84.9462 27.9889 84.6704 28.6648 84.3509 29.3519C84.2473 29.5753 84.1554 29.7985 84.0723 30.0302C83.9369 30.4004 83.7632 30.7451 83.5791 31.0931C83.5252 31.1951 83.5252 31.1951 83.4703 31.2991C82.6746 32.7824 81.7581 34.1977 80.6966 35.5039C80.4903 35.7588 80.2888 36.0173 80.0872 36.2759C79.6176 36.8767 79.1375 37.4687 78.656 38.06C78.4675 38.2916 78.2796 38.5236 78.0916 38.7557C77.6801 39.2635 77.268 39.7709 76.854 40.2767C76.736 40.4212 76.6184 40.5659 76.5011 40.7108C76.1071 41.1966 75.7045 41.6739 75.2966 42.1479C75.0375 42.4496 74.7836 42.7548 74.5336 43.0642C74.2329 43.4353 73.9195 43.7921 73.5983 44.1455C73.4416 44.3185 73.2876 44.4934 73.1348 44.6698C72.8295 45.0211 72.5158 45.3645 72.2024 45.7086C72.0395 45.8888 71.8791 46.0705 71.7203 46.2544C71.3423 46.6895 70.9499 47.1112 70.5578 47.5335C70.411 47.6922 70.2651 47.8515 70.1192 48.011C69.3883 48.806 68.6264 49.5564 67.8265 50.2814C67.7749 50.3285 67.7232 50.3757 67.67 50.4242C66.8498 51.1689 65.9798 51.8255 65.0706 52.457C65.0168 52.4946 64.963 52.5323 64.9075 52.5711C63.1512 53.7938 61.2972 54.6956 59.3082 55.4694C59.2232 55.5031 59.1381 55.5367 59.0505 55.5714C58.0773 55.9434 57.0601 56.1974 56.0408 56.4055C55.9469 56.425 55.9469 56.425 55.8511 56.4448C54.6337 56.6831 53.4454 56.7537 52.2076 56.751C51.9563 56.7507 51.705 56.7527 51.4536 56.7548C49.0288 56.7627 46.594 56.3529 44.3595 55.3857C44.3081 55.3643 44.2567 55.3429 44.2038 55.3208C41.8134 54.3234 39.7209 52.8597 37.9068 51.0093C37.7563 50.8563 37.7563 50.8563 37.548 50.6998C37.3094 50.5037 37.1208 50.2853 36.921 50.0503C36.7569 49.8596 36.5865 49.6761 36.4153 49.4917C35.4254 48.3891 34.5885 47.1515 33.7534 45.9302C33.7145 45.8734 33.6756 45.8167 33.6356 45.7583C33.0968 44.9686 32.5965 44.1577 32.1028 43.3391C31.9642 43.1103 31.8226 42.8834 31.6812 42.6563C31.1582 41.8052 30.6626 40.9375 30.1623 40.0728C30.1107 39.9836 30.059 39.8945 30.0058 39.8026C29.3867 38.7339 28.7759 37.6611 28.1758 36.5816C27.7377 35.7958 27.2857 35.0186 26.831 34.2425C26.6798 33.9842 26.53 33.7255 26.3847 33.4639C24.9803 30.8669 24.9803 30.8669 22.6827 29.1686C22.2452 29.0809 21.9478 29.0385 21.5449 29.2522C21.0757 29.6387 20.9376 29.9217 20.8637 30.512C20.8169 31.4517 21.1083 32.2677 21.4017 33.1496C21.4689 33.3538 21.5326 33.5586 21.5941 33.7646C21.7675 34.3451 21.9661 34.9031 22.2074 35.4594C22.3537 35.8255 22.4653 36.1999 22.5792 36.5772C22.6709 36.8789 22.769 37.1725 22.8915 37.4631C24.2169 40.6874 24.9374 44.4906 24.2329 47.9384C24.2044 48.0891 24.2044 48.0891 24.1752 48.2428C24.0446 48.8745 23.8281 49.4432 23.5648 50.0304C23.5054 50.1716 23.5054 50.1716 23.4448 50.3157C22.6731 52.0921 21.4016 53.791 19.7232 54.8C19.6757 54.8292 19.6282 54.8583 19.5792 54.8884C18.7672 55.3833 17.9472 55.7438 17.0508 56.0551C16.9996 56.076 16.9484 56.0968 16.8956 56.1183C16.4284 56.3075 15.9597 56.3994 15.4641 56.484C15.3851 56.4981 15.3061 56.5123 15.2247 56.5268C14.9985 56.5667 14.7722 56.6045 14.5455 56.6409C14.4598 56.6546 14.4598 56.6546 14.3723 56.6687C11.3377 57.1033 7.88749 56.3995 5.40114 54.5648C3.81313 53.3281 2.64515 51.8339 1.76804 50.0304C1.72455 49.9428 1.68106 49.8552 1.63625 49.765C-0.119857 45.968 -0.00180685 41.4162 0.00338639 37.3242C0.0038578 36.9505 0.00358309 36.5767 0.00310095 36.203C0.00148556 34.7292 0.00944762 33.2564 0.0508108 31.7832C0.0531761 31.6959 0.0531738 31.6959 0.0555869 31.6068C0.0863084 30.5057 0.148776 29.4054 0.258287 28.3092C0.267923 28.2117 0.267923 28.2117 0.277754 28.1122C0.382069 27.0804 0.505378 26.0508 0.63018 25.0213C0.641942 24.9222 0.653705 24.823 0.665824 24.7209C0.804183 23.5634 0.981227 22.4331 1.25856 21.3005C1.34546 20.9439 1.40877 20.5882 1.46531 20.2256C1.78766 18.2841 2.36613 16.3155 3.10924 14.4944C3.1805 14.3181 3.24772 14.1411 3.31302 13.9625C3.91598 12.3291 4.67896 10.7509 5.60962 9.27951C5.64338 9.22589 5.67714 9.17227 5.71193 9.11702C6.42829 7.98844 7.23906 6.9421 8.16148 5.97516C8.24313 5.88953 8.32435 5.8035 8.40517 5.7171C9.45758 4.59508 10.6638 3.71104 11.9798 2.92289C12.1076 2.84601 12.2341 2.76712 12.3604 2.68796C13.8823 1.74031 15.7074 1.13046 17.4684 0.8281C17.5351 0.815831 17.6017 0.803561 17.6704 0.790919C22.2915 -0.0424689 27.2175 1.11753 31.081 3.75681C32.5105 4.76303 33.9863 5.91488 35.1091 7.26439C35.2644 7.44777 35.4264 7.62393 35.5898 7.79994C36.0314 8.2758 36.4483 8.76365 36.8433 9.27951C36.9333 9.39681 36.9333 9.39681 37.025 9.51649C38.1188 10.9606 39.1065 12.483 40.0168 14.0491C40.0544 14.1134 40.092 14.1777 40.1307 14.244C42.0445 17.5325 43.6546 20.9858 45.122 24.4938C46.5235 27.9217 46.5235 27.9217 48.3681 31.1193C48.4173 31.1924 48.4665 31.2656 48.5172 31.3409C49.6135 32.9153 51.0738 34.2503 53.0161 34.5971C53.2118 34.6337 53.2118 34.6337 53.2953 34.7174C54.4331 34.806 55.5666 34.8062 56.6358 34.3827C56.7229 34.3534 56.81 34.324 56.8997 34.2938C59.336 33.4396 61.286 31.5356 62.7322 29.4458C62.769 29.3932 62.8058 29.3407 62.8437 29.2866C63.609 28.1888 64.2463 27.0272 64.8331 25.8254C64.9274 25.6323 65.0245 25.4426 65.1254 25.2527C65.4298 24.6769 65.6324 24.0995 65.815 23.4769C65.8825 23.2486 65.9548 23.0271 66.0362 22.8039C66.3411 21.8735 66.5207 20.9651 66.5216 19.985C66.5218 19.8776 66.5218 19.8776 66.522 19.768C66.509 19.0217 66.4074 18.3108 65.9057 17.7309C65.418 17.3339 64.8779 17.1039 64.2417 17.1246C63.6683 17.1927 63.1903 17.4599 62.8158 17.8983C62.1944 18.9021 62.1711 20.0877 62.4174 21.2225C62.6121 22.0279 62.8624 22.8099 63.1863 23.5726C63.3483 23.9555 63.4953 24.3406 63.63 24.7337C63.681 24.8817 63.681 24.8817 63.7331 25.0328C63.914 25.7001 63.9649 26.0898 63.6161 26.7089C63.5742 26.7785 63.5323 26.8481 63.4891 26.9197C63.4467 26.9931 63.4044 27.0664 63.3607 27.142C63.0341 27.702 62.6923 28.2493 62.3147 28.7763C62.2567 28.8573 62.1986 28.9383 62.1388 29.0218C60.6677 31.0281 58.5285 33.4711 55.9341 33.915C55.7786 33.9344 55.6227 33.9499 55.4666 33.9643C55.4391 33.9919 55.4115 34.0196 55.3831 34.048C55.0845 34.0692 54.7847 34.0635 54.4854 34.0637C54.4016 34.0647 54.3179 34.0657 54.2316 34.0668C54.1504 34.067 54.0692 34.0671 53.9856 34.0673C53.9113 34.0676 53.8371 34.068 53.7606 34.0683C53.5232 34.0459 53.3458 33.976 53.1283 33.8806C53 33.857 52.8712 33.8361 52.742 33.8179C51.9168 33.6594 51.2562 33.1535 50.6229 32.6255C50.5734 32.5871 50.5239 32.5487 50.4729 32.5091C47.7418 30.325 46.4911 26.0457 45.1946 22.9189C45.147 22.8182 45.147 22.8182 45.0984 22.7154C45.004 22.429 45.0005 22.1544 44.9995 21.856C44.9988 21.7935 44.9981 21.731 44.9974 21.6667C44.9958 21.4635 44.9958 21.2603 44.9963 21.0571C44.9963 20.9528 44.9963 20.9528 44.9964 20.8464C45 19.6423 45.0971 18.49 45.3616 17.3125C45.3795 17.2318 45.3974 17.151 45.4159 17.0678C46.1884 13.6769 47.7829 10.1816 50.189 7.63407C50.346 7.46676 50.496 7.29627 50.6458 7.12253C51.4209 6.2317 52.2711 5.39105 53.2118 4.67726C53.2555 4.6434 53.2991 4.60955 53.3441 4.57466C54.933 3.34523 56.6564 2.32961 58.5299 1.60669C58.7544 1.51829 58.9706 1.42349 59.1882 1.3197C59.682 1.09588 60.2061 0.969444 60.7279 0.8281C60.8667 0.78668 60.8667 0.78668 61.0082 0.744423C62.01 0.454056 63.0371 0.303889 64.0684 0.158681C64.131 0.149688 64.1935 0.140695 64.2579 0.131429C67.9469 -0.343225 72.2426 0.491583 75.5197 2.25074Z" fill="#BA95FC"/>
<path d="M81.8567 35.2194C81.9699 35.2412 82.083 35.2641 82.196 35.2873C82.259 35.3 82.3219 35.3126 82.3868 35.3256C84.8322 36.0004 87.0341 38.0995 88.2872 40.24C89.8504 43.0861 90.4856 46.8313 89.5921 50.0093C89.212 51.2637 88.6619 52.4743 87.7861 53.461C87.7411 53.5169 87.6961 53.5728 87.6497 53.6303C86.1537 55.4501 83.7566 56.1872 81.5227 56.5571C81.4575 56.5681 81.3923 56.5791 81.3252 56.5904C78.2755 57.0795 74.8959 56.6843 72.0022 55.6366C71.8642 55.5879 71.8642 55.5879 71.7233 55.5382C70.1481 54.9347 68.8338 53.7929 67.9943 52.331C67.7398 51.6995 67.7398 51.6995 67.7431 51.3691C67.8755 51.1203 68.0643 50.9559 68.2755 50.7729C68.3301 50.722 68.3848 50.6711 68.4411 50.6186C68.596 50.4755 68.7532 50.3359 68.9122 50.1976C68.9755 50.1425 69.0388 50.0874 69.1041 50.0306C69.2056 49.9434 69.3074 49.8566 69.4094 49.7701C69.6904 49.51 69.9435 49.2242 70.2006 48.9407C70.5271 48.5813 70.8652 48.2363 71.2131 47.8975C71.4341 47.6704 71.6401 47.4334 71.8474 47.1939C72.0969 46.9102 72.358 46.638 72.6181 46.3641C73.0408 45.9162 73.4416 45.4622 73.8248 44.9799C74.0315 44.7281 74.2494 44.4897 74.4711 44.2513C74.8007 43.896 75.1092 43.5304 75.4076 43.1484C75.6416 42.8576 75.8857 42.5767 76.1309 42.2953C76.776 41.5537 77.3924 40.7923 77.9962 40.0167C78.296 39.6337 78.6073 39.262 78.9233 38.8924C79.2404 38.5196 79.5419 38.1361 79.8416 37.7493C80.1049 37.4111 80.3773 37.0824 80.6562 36.7569C81.0805 36.2614 81.4726 35.7467 81.8567 35.2194Z" fill="#BA96FC"/>
</svg>
