<svg width="26" height="17" viewBox="0 0 26 17" fill="none" xmlns="http://www.w3.org/2000/svg">
<path d="M9.36914 0.291992V4.77344H11.0703V5.9541H9.36914V11.7432H7.95996V0.291992H9.36914ZM6.33496 1.48535C6.33496 4.8623 4.93848 7.82031 1.11719 9.69922L0.317383 8.60742C3.11035 7.21729 4.62109 5.26221 4.91309 2.65332H0.939453V1.48535H6.33496Z" fill="black"/>
<path d="M23.0459 0V6.62402H25.625V8.08984H23.0459V16.6064H21.2832V0H23.0459ZM18.7041 1.74414C18.6855 6.5498 16.5703 10.8359 11.0967 13.5449L10.1133 12.1719C14.2788 10.0938 16.5425 7.08789 16.9043 3.20996H10.9482V1.74414H18.7041Z" fill="black"/>
</svg>
