<svg width="19" height="19" viewBox="0 0 19 19" fill="none" xmlns="http://www.w3.org/2000/svg">
<path d="M0.75 15.625C0.75 14.4978 1.19777 13.4168 1.9948 12.6198C2.79183 11.8228 3.87283 11.375 5 11.375H13.5C14.6272 11.375 15.7082 11.8228 16.5052 12.6198C17.3022 13.4168 17.75 14.4978 17.75 15.625C17.75 16.1886 17.5261 16.7291 17.1276 17.1276C16.7291 17.5261 16.1886 17.75 15.625 17.75H2.875C2.31141 17.75 1.77091 17.5261 1.3724 17.1276C0.973883 16.7291 0.75 16.1886 0.75 15.625Z" stroke="black" stroke-width="1.5" stroke-linejoin="round"/>
<path d="M9.25 7.125C11.0104 7.125 12.4375 5.69791 12.4375 3.9375C12.4375 2.17709 11.0104 0.75 9.25 0.75C7.48959 0.75 6.0625 2.17709 6.0625 3.9375C6.0625 5.69791 7.48959 7.125 9.25 7.125Z" stroke="black" stroke-width="1.5"/>
</svg>
