<?xml version="1.0" encoding="UTF-8"?><svg id="_레이어_2" xmlns="http://www.w3.org/2000/svg" xmlns:xlink="http://www.w3.org/1999/xlink" viewBox="0 0 48 48"><defs><style>.cls-1{fill:#f8e049;}.cls-2{clip-path:url(#clippath-7);}.cls-3{fill:#371c1d;}.cls-4{clip-path:url(#clippath-1);}.cls-5{clip-path:url(#clippath-4);}.cls-6{clip-path:url(#clippath-10);}</style><clipPath id="clippath-1"><path class="cls-1" d="m13.27,19.79h1.58s.01,4.35,0,5.36c0,.74,1.65.75,1.65.01v-5.32s.54,0,1.58,0c.98,0,.99-1.55,0-1.55-1.11,0-4.82-.03-4.82-.03-.93,0-.93,1.52,0,1.52"/></clipPath><clipPath id="clippath-4"><path class="cls-1" d="m20.85,20.07l.88,2.76h-1.84l.96-2.76Zm-.99-1.29c-.39.86-1.8,4.91-2.26,5.98-.34.78,1.12,1.41,1.46.63l.32-1.11h2.9s-.1.05.29,1.06c.31.82,1.82.25,1.5-.57-.44-1.17-1.98-5.4-2.26-6-.13-.28-.59-.48-1.04-.48-.37,0-.73.14-.89.48"/></clipPath><clipPath id="clippath-7"><path class="cls-1" d="m24.61,19.03c0,1.38,0,5.82,0,5.82,0,0-.13.88.63.88s2.43,0,3.18,0,.74-1.58,0-1.58-2.1,0-2.1,0c0,0,0-4.11,0-5.1,0-.48-.43-.72-.86-.72s-.86.24-.86.73"/></clipPath><clipPath id="clippath-10"><path class="cls-1" d="m29.37,18.81c.02.6-.02,6.06-.02,6.47,0,.64,1.63.64,1.63,0,0-.74,0-2.15,0-2.15l.48-.38,2.09,2.85c.42.56,1.75-.45,1.33-1.01l-2.22-2.92s1.5-1.63,2.1-2.22c.35-.34-.73-1.42-1.07-1.08-.34.33-2.69,2.69-2.69,2.69,0,0,.02-1.48,0-2.3,0-.31-.39-.46-.78-.46-.42,0-.84.17-.84.51"/></clipPath></defs><g id="Button"><g><circle class="cls-1" cx="24" cy="24" r="24"/><g><path class="cls-3" d="m24,9.87c-8.5,0-15.38,5.44-15.38,12.16,0,4.37,2.92,8.2,7.3,10.35-.32,1.2-1.17,4.35-1.33,5.02-.21.84.31.83.64.6.26-.18,4.21-2.86,5.92-4.02.93.14,1.88.21,2.86.21,8.5,0,15.38-5.44,15.38-12.16s-6.89-12.16-15.38-12.16"/><g><g><path class="cls-1" d="m13.27,19.79h1.58s.01,4.35,0,5.36c0,.74,1.65.75,1.65.01v-5.32s.54,0,1.58,0c.98,0,.99-1.55,0-1.55-1.11,0-4.82-.03-4.82-.03-.93,0-.93,1.52,0,1.52"/><g class="cls-4"><rect class="cls-1" x="12.34" y="18.27" width="6.73" height="7.63"/></g></g><g><path class="cls-1" d="m20.85,20.07l.88,2.76h-1.84l.96-2.76Zm-.99-1.29c-.39.86-1.8,4.91-2.26,5.98-.34.78,1.12,1.41,1.46.63l.32-1.11h2.9s-.1.05.29,1.06c.31.82,1.82.25,1.5-.57-.44-1.17-1.98-5.4-2.26-6-.13-.28-.59-.48-1.04-.48-.37,0-.73.14-.89.48"/><g class="cls-5"><rect class="cls-1" x="17.26" y="18.3" width="7.11" height="7.87"/></g></g><g><path class="cls-1" d="m24.61,19.03c0,1.38,0,5.82,0,5.82,0,0-.13.88.63.88s2.43,0,3.18,0,.74-1.58,0-1.58-2.1,0-2.1,0c0,0,0-4.11,0-5.1,0-.48-.43-.72-.86-.72s-.86.24-.86.73"/><g class="cls-2"><rect class="cls-1" x="24.49" y="18.3" width="4.68" height="7.42"/></g></g><g><path class="cls-1" d="m29.37,18.81c.02.6-.02,6.06-.02,6.47,0,.64,1.63.64,1.63,0,0-.74,0-2.15,0-2.15l.48-.38,2.09,2.85c.42.56,1.75-.45,1.33-1.01l-2.22-2.92s1.5-1.63,2.1-2.22c.35-.34-.73-1.42-1.07-1.08-.34.33-2.69,2.69-2.69,2.69,0,0,.02-1.48,0-2.3,0-.31-.39-.46-.78-.46-.42,0-.84.17-.84.51"/><g class="cls-6"><rect class="cls-1" x="29.35" y="18.03" width="5.94" height="8.12"/></g></g></g></g></g></g></svg>