<svg width="20" height="20" viewBox="0 0 20 20" fill="none" xmlns="http://www.w3.org/2000/svg">
<path d="M10 0C15.523 0 20 4.477 20 10C20 15.523 15.523 20 10 20C4.47717 19.9998 0 15.5229 0 10C0 4.47712 4.47717 0.000197902 10 0ZM10.0098 11.3916C9.12387 11.3887 8.26693 11.7092 7.60059 12.293C6.93444 12.8767 6.50418 13.6841 6.39062 14.5625C6.37558 14.7377 6.42874 14.9119 6.53906 15.0488C6.64967 15.1859 6.80966 15.2756 6.98438 15.2979C7.15896 15.32 7.33527 15.2729 7.47656 15.168C7.61783 15.063 7.71389 14.9079 7.74316 14.7344C7.81348 14.1848 8.08156 13.6789 8.49805 13.3135C8.91439 12.9482 9.45008 12.7474 10.0039 12.749C10.5579 12.7508 11.0927 12.9553 11.5068 13.3232C11.921 13.6913 12.187 14.198 12.2539 14.748C12.2643 14.8371 12.2921 14.9237 12.3359 15.002C12.3797 15.08 12.4384 15.1488 12.5088 15.2041C12.5793 15.2595 12.6607 15.3002 12.7471 15.3242C12.8294 15.3471 12.9151 15.3537 13 15.3447H13.0117C13.1008 15.3343 13.1874 15.3065 13.2656 15.2627C13.3437 15.2189 13.4125 15.1602 13.4678 15.0898C13.5232 15.0193 13.5639 14.938 13.5879 14.8516C13.6119 14.7652 13.6184 14.6749 13.6074 14.5859C13.4997 13.7067 13.0745 12.8968 12.4121 12.3086C11.7497 11.7205 10.8955 11.3946 10.0098 11.3916ZM5.81445 6.2793C5.44454 6.2793 5.08973 6.42597 4.82812 6.6875C4.56655 6.94907 4.41899 7.30391 4.41895 7.67383C4.41895 8.04379 4.56654 8.39855 4.82812 8.66016C5.08974 8.92177 5.44448 9.06934 5.81445 9.06934C6.1844 9.06931 6.53919 8.92175 6.80078 8.66016C7.06231 8.39856 7.20898 8.04374 7.20898 7.67383C7.20894 7.30391 7.06235 6.94907 6.80078 6.6875C6.53919 6.42593 6.18438 6.27932 5.81445 6.2793ZM14.1865 6.2793C13.8166 6.2793 13.4618 6.42599 13.2002 6.6875C12.9386 6.94907 12.7911 7.30391 12.791 7.67383C12.791 8.0438 12.9386 8.39854 13.2002 8.66016C13.4618 8.92177 13.8165 9.06934 14.1865 9.06934C14.5564 9.06929 14.9113 8.92173 15.1729 8.66016C15.4344 8.39856 15.5811 8.04373 15.5811 7.67383C15.581 7.30391 15.4344 6.94907 15.1729 6.6875C14.9113 6.42593 14.5564 6.27934 14.1865 6.2793Z" fill="black"/>
</svg>
