<svg width="20" height="20" viewBox="0 0 20 20" fill="none" xmlns="http://www.w3.org/2000/svg">
<path d="M11.9577 10.0111L0.00111113 8.80656L0 1.19258C0.000145452 0.989257 0.0522354 0.789341 0.151328 0.611799C0.250421 0.434256 0.393231 0.284974 0.56621 0.178115C0.739189 0.0712549 0.936601 0.0103611 1.13972 0.00120963C1.34284 -0.00794181 1.54493 0.0349526 1.72681 0.125824L19.3417 8.93324C19.5395 9.0325 19.7059 9.18483 19.8222 9.37322C19.9384 9.56161 20 9.77862 20 10C20 10.2214 19.9384 10.4384 19.8222 10.6268C19.7059 10.8152 19.5395 10.9675 19.3417 11.0668L1.72904 19.8742C1.54715 19.965 1.34506 20.0079 1.14194 19.9988C0.938824 19.9896 0.741411 19.9287 0.568432 19.8219C0.395453 19.715 0.252643 19.5657 0.15355 19.3882C0.0544576 19.2107 0.00236797 19.0107 0.00222252 18.8074V11.1934L11.9577 10.0111Z" fill="black"/>
</svg>
