<svg width="24" height="27" viewBox="0 0 24 27" fill="none" xmlns="http://www.w3.org/2000/svg">
<path d="M14.9795 23.4121C15.4835 23.4122 15.7505 24.009 15.4141 24.3848C14.9843 24.8648 14.4574 25.2488 13.8691 25.5117C13.281 25.7746 12.6442 25.9111 12 25.9111L11.7588 25.9043C11.1973 25.8747 10.6455 25.7417 10.1309 25.5117C9.54263 25.2488 9.0157 24.8648 8.58594 24.3848C8.26803 24.0297 8.49023 23.4707 8.94238 23.418L9.04199 23.4121H14.9795ZM12.0049 0.75C13.4693 0.752147 14.7093 1.72445 15.1113 3.05957L15.1602 3.24121L15.167 3.27637L15.2314 3.62109L15.5361 3.79297C16.9025 4.56348 18.0667 5.64675 18.9336 6.9541C19.8005 8.26154 20.3455 9.75585 20.5234 11.3145L20.5596 11.6855L20.5811 12.0166V15.9619L20.5898 16.0195L20.6182 16.2002L20.6201 16.2119L20.6221 16.2227C20.8388 17.3891 21.4845 18.4321 22.4316 19.1465L22.4424 19.1553L22.4531 19.1621L22.6758 19.3184L22.6943 19.332L22.7148 19.3438L22.9307 19.4756L22.9414 19.4824L22.9521 19.4883C23.4426 19.766 23.2869 20.5113 22.7471 20.5732L22.6455 20.5791H1.33594C0.736059 20.5791 0.527351 19.7841 1.04785 19.4893C1.6509 19.148 2.1717 18.6783 2.57422 18.1143C2.97678 17.5501 3.25135 16.9041 3.37793 16.2227L3.38086 16.209L3.38281 16.1953L3.41113 16.0039L3.41895 15.9502V15.8955L3.41992 11.9482C3.49883 10.3377 3.9695 8.77055 4.79102 7.38281C5.61651 5.98848 6.77152 4.81737 8.1543 3.97266L8.47461 3.78418L8.75195 3.62109L8.82422 3.30762L8.83789 3.25293C8.99067 2.60508 9.33869 2.01976 9.83496 1.57617C10.3305 1.13331 10.9496 0.852322 11.6094 0.772461L11.8086 0.753906L12.0049 0.75Z" stroke="black" stroke-width="1.5"/>
</svg>
