<svg width="24" height="24" viewBox="0 0 24 24" fill="none" xmlns="http://www.w3.org/2000/svg">
<path d="M13.0791 0.75C13.276 1.3345 13.465 1.90906 13.7012 2.37012C14.0419 3.03515 14.5238 3.57021 15.3486 3.91211C16.1772 4.2555 16.9004 4.2154 17.6123 3.98535C18.1051 3.82607 18.6438 3.55316 19.1914 3.28125L20.7178 4.80762C20.4441 5.35978 20.1718 5.90105 20.0127 6.39453C19.7833 7.10619 19.7454 7.82627 20.0879 8.65234C20.429 9.47553 20.9614 9.95627 21.626 10.2969C22.0869 10.5331 22.6627 10.722 23.25 10.9199V13.0791C22.6686 13.2749 22.0941 13.4642 21.6328 13.7002C20.9673 14.0407 20.4288 14.5228 20.0859 15.3496V15.3506C19.7434 16.1782 19.7827 16.9007 20.0127 17.6123C20.172 18.105 20.4444 18.6433 20.7168 19.1914L19.1904 20.7188C18.6373 20.4443 18.097 20.1719 17.6055 20.0127C16.9407 19.7973 16.271 19.7528 15.5127 20.0283H15.4932L15.3545 20.0859C14.5271 20.4307 14.043 20.967 13.7012 21.6328C13.4644 22.0942 13.2762 22.668 13.0801 23.25H10.9199C10.7235 22.6665 10.5348 22.0918 10.2988 21.6309C9.95828 20.9658 9.47686 20.4299 8.65137 20.0879C7.82336 19.7445 7.10059 19.7847 6.38867 20.0146C5.89546 20.174 5.35589 20.4455 4.80762 20.7178L3.28125 19.1904C3.55009 18.6504 3.82277 18.1146 3.98242 17.623C4.21375 16.9108 4.25675 16.1824 3.91211 15.3486V15.3477L3.77441 15.0537C3.43259 14.403 2.94753 13.997 2.36523 13.6992C1.90424 13.4635 1.33083 13.2745 0.75 13.0791V10.9199C1.33159 10.724 1.9055 10.5354 2.36621 10.2998C3.03161 9.95948 3.56937 9.47796 3.91211 8.65137C4.25532 7.82382 4.21624 7.10245 3.98633 6.39062C3.82708 5.8976 3.55427 5.35782 3.28125 4.80762L4.80762 3.28125C5.36046 3.55558 5.90086 3.82912 6.39453 3.98828C7.10658 4.21779 7.82637 4.25422 8.65234 3.91113V3.91211C9.4785 3.56929 9.96068 3.03148 10.3008 2.36621C10.5362 1.90553 10.725 1.33159 10.9209 0.75H13.0791ZM12 7.25C9.37679 7.25 7.25 9.37679 7.25 12C7.25 14.6232 9.37679 16.75 12 16.75C14.6232 16.75 16.75 14.6232 16.75 12C16.75 9.37679 14.6232 7.25 12 7.25Z" stroke="black" stroke-width="1.5"/>
</svg>
