<svg width="24" height="24" viewBox="0 0 24 24" fill="none" xmlns="http://www.w3.org/2000/svg">
<path d="M11.9995 2.25879C6.58855 2.25879 2.18555 6.26079 2.18555 11.1808C2.18555 13.2868 3.07655 16.1528 5.55655 18.0018L5.26455 21.0578C5.24255 21.2868 5.34855 21.5088 5.54055 21.6368C5.64455 21.7068 5.76555 21.7408 5.88555 21.7408C5.98755 21.7408 6.08855 21.7158 6.18155 21.6668L9.36455 19.9558C9.76155 19.9948 10.9245 20.1028 12.0005 20.1028C17.4115 20.1028 21.8145 16.1008 21.8145 11.1808C21.8145 6.26079 17.4105 2.25879 11.9995 2.25879ZM7.53155 12.3948C6.86455 12.3948 6.33155 11.8638 6.33155 11.1948C6.33155 10.5258 6.86255 9.98779 7.53155 9.98779C8.20055 9.98779 8.73855 10.5258 8.73855 11.1948C8.73855 11.8638 8.19955 12.3948 7.53155 12.3948ZM11.9975 12.3948C11.3305 12.3948 10.7975 11.8568 10.7975 11.1878C10.7975 10.5258 11.3285 9.98779 11.9975 9.98779C12.6665 9.98779 13.2045 10.5258 13.2045 11.1878C13.2035 11.8568 12.6655 12.3948 11.9975 12.3948ZM16.4605 12.3948C15.7935 12.3948 15.2605 11.8568 15.2605 11.1878C15.2605 10.5258 15.7915 9.98779 16.4605 9.98779C17.1295 9.98779 17.6675 10.5258 17.6675 11.1878C17.6675 11.8568 17.1295 12.3948 16.4605 12.3948Z" fill="#000000"/>
</svg>



