<svg width="24" height="27" viewBox="0 0 24 27" fill="none" xmlns="http://www.w3.org/2000/svg">
<path d="M14.9794 22.6619C16.1325 22.6619 16.7417 24.027 15.9725 24.8855C15.4724 25.4441 14.8601 25.891 14.1756 26.1969C13.4911 26.5029 12.7498 26.661 12 26.6611C11.2502 26.661 10.5089 26.5029 9.82441 26.1969C9.13991 25.891 8.52762 25.4441 8.02752 24.8855C7.29168 24.0643 7.8169 22.7806 8.87268 22.6713L9.01931 22.6633L14.9794 22.6619ZM12 0C13.8103 0 15.3407 1.20375 15.8326 2.85407L15.8939 3.08202L15.9045 3.13934C17.3743 3.96812 18.6267 5.13341 19.5591 6.53969C20.4916 7.94598 21.0774 9.55321 21.2687 11.2296L21.3061 11.6122L21.3314 11.9975V15.9047L21.3594 16.086C21.5419 17.0682 22.0855 17.9465 22.8831 18.5481L23.1057 18.7041L23.3217 18.8361C24.4681 19.4853 24.0682 21.1902 22.8191 21.3209L22.6645 21.3289H1.33559C-0.0347921 21.3289 -0.513359 19.5106 0.678392 18.8361C1.18633 18.5486 1.62519 18.1535 1.96418 17.6784C2.30316 17.2033 2.53406 16.6598 2.64065 16.086L2.66864 15.8953L2.66997 11.9362C2.75125 10.195 3.25806 8.50037 4.14605 7.00049C5.03403 5.50061 6.27611 4.24125 7.76358 3.33264L8.09417 3.13801L8.1075 3.08069C8.29555 2.28329 8.72395 1.56289 9.33478 1.01691C9.9456 0.470939 10.7094 0.125735 11.5228 0.027994L11.7654 0.00533215L12 0Z" fill="black"/>
</svg>
