<svg width="26" height="26" viewBox="0 0 26 26" fill="none" xmlns="http://www.w3.org/2000/svg">
<path d="M24.75 24.75L18.6751 18.6751ZM18.6751 18.6751C19.6502 17.7001 20.4236 16.5425 20.9513 15.2686C21.479 13.9946 21.7506 12.6292 21.7506 11.2503C21.7506 9.87138 21.479 8.50597 20.9513 7.23201C20.4236 5.95806 19.6502 4.80051 18.6751 3.82547C17.7001 2.85042 16.5425 2.07698 15.2686 1.54929C13.9946 1.0216 12.6292 0.75 11.2503 0.75C9.87138 0.75 8.50597 1.0216 7.23201 1.54929C5.95806 2.07698 4.80051 2.85042 3.82547 3.82547C1.85628 5.79466 0.75 8.46545 0.75 11.2503C0.75 14.0352 1.85628 16.7059 3.82547 18.6751C5.79466 20.6443 8.46545 21.7506 11.2503 21.7506C14.0352 21.7506 16.7059 20.6443 18.6751 18.6751Z" fill="black"/>
<path d="M24.75 24.75L18.6751 18.6751M18.6751 18.6751C19.6502 17.7001 20.4236 16.5425 20.9513 15.2686C21.479 13.9946 21.7506 12.6292 21.7506 11.2503C21.7506 9.87138 21.479 8.50597 20.9513 7.23201C20.4236 5.95806 19.6502 4.80051 18.6751 3.82547C17.7001 2.85042 16.5425 2.07698 15.2686 1.54929C13.9946 1.0216 12.6292 0.75 11.2503 0.75C9.87138 0.75 8.50597 1.0216 7.23201 1.54929C5.95806 2.07698 4.80051 2.85042 3.82547 3.82547C1.85628 5.79466 0.75 8.46545 0.75 11.2503C0.75 14.0352 1.85628 16.7059 3.82547 18.6751C5.79466 20.6443 8.46545 21.7506 11.2503 21.7506C14.0352 21.7506 16.7059 20.6443 18.6751 18.6751Z" stroke="black" stroke-width="1.5" stroke-linecap="round" stroke-linejoin="round"/>
</svg>
