<svg width="21" height="18" viewBox="0 0 21 18" fill="none" xmlns="http://www.w3.org/2000/svg">
<path d="M16.71 0.751953C16.7539 0.757266 16.8195 0.775105 16.9209 0.839844L16.9277 0.84375C17.007 0.893401 17.0727 0.962198 17.1182 1.04395C17.1523 1.10543 17.1737 1.17285 17.1826 1.24219L17.1875 1.31152V12.6221C17.1884 12.7164 17.1656 12.8094 17.1211 12.8926C17.0795 12.9704 17.0194 13.0364 16.9473 13.0869C16.8416 13.1488 16.7753 13.1677 16.7305 13.1738C16.684 13.1802 16.6184 13.1803 16.5068 13.1514C16.2347 13.0809 15.9097 12.9138 15.2617 12.6084C12.855 11.343 10.215 10.5818 7.50391 10.3711L6.66992 10.3066L6.69629 11.1426C6.73172 12.2701 7.07217 13.3672 7.68164 14.3164C8.29117 15.2657 9.14762 16.0318 10.1582 16.5332H10.1592C10.1896 16.5483 10.2127 16.5752 10.2236 16.6074C10.2346 16.6397 10.2319 16.6755 10.2168 16.7061C10.2017 16.7364 10.1747 16.7596 10.1426 16.7705C10.1104 16.7813 10.0753 16.7787 10.0449 16.7637H10.0439C8.97282 16.2275 8.06971 15.4066 7.43359 14.3916C6.83655 13.4388 6.49662 12.3492 6.44434 11.2285L6.4375 11.0049V3.75293C9.52664 3.62578 12.5472 2.80082 15.2725 1.33594L15.2734 1.33691C15.8841 1.0389 16.1954 0.863191 16.4785 0.782227C16.5938 0.749279 16.663 0.746348 16.71 0.751953ZM20.0664 5.98633C20.1556 6.11247 20.2145 6.25692 20.2383 6.4082L20.25 6.56152V7.4375C20.2505 7.64431 20.1864 7.84649 20.0674 8.01562C20.0469 8.04471 20.0233 8.0711 20 8.09766V5.90625C20.0228 5.93227 20.0463 5.95789 20.0664 5.98633ZM0.75 6.12012C0.749156 5.81664 0.808128 5.51591 0.923828 5.23535C1.03963 4.95465 1.2101 4.69908 1.4248 4.48438C1.63936 4.26987 1.89437 4.10013 2.1748 3.98438C2.4555 3.86858 2.7569 3.8087 3.06055 3.80957H3.625V10.1758H3.07617C2.77204 10.1775 2.47005 10.1198 2.18848 10.0049C1.90685 9.88988 1.6506 9.72003 1.43457 9.50586C1.21852 9.29165 1.04614 9.03653 0.928711 8.75586C0.811438 8.47536 0.750864 8.17415 0.75 7.87012V6.12012Z" stroke="black" stroke-width="1.5"/>
</svg>
