<svg width="20" height="20" viewBox="0 0 20 20" fill="none" xmlns="http://www.w3.org/2000/svg">
<circle cx="10" cy="10" r="9.25" stroke="black" stroke-width="1.5"/>
<path d="M11.0251 14.2343C11.0251 14.5463 10.9174 14.8101 10.7019 15.0255C10.4865 15.2409 10.2228 15.3486 9.91077 15.3486C9.59877 15.3486 9.33505 15.2409 9.11962 15.0255C8.90419 14.8101 8.79648 14.5463 8.79648 14.2343C8.79648 13.9223 8.90419 13.6586 9.11962 13.4432C9.33505 13.2278 9.59877 13.12 9.91077 13.12C10.2228 13.12 10.4865 13.2278 10.7019 13.4432C10.9174 13.6586 11.0251 13.9223 11.0251 14.2343Z" fill="black"/>
<path d="M10.8275 11.0963C10.7371 11.5426 10.3885 11.9166 9.93306 11.9166C9.47766 11.9166 9.09854 11.5461 9.14377 11.093C9.17937 10.7364 9.24189 10.4686 9.33134 10.2897C9.47991 9.99257 9.88106 9.55428 10.5348 8.97485C10.8022 8.75199 11.0251 8.51055 11.2034 8.25055C11.3816 7.99055 11.4708 7.71197 11.4708 7.41483C11.4708 7.10282 11.3519 6.81682 11.1142 6.55682C10.8765 6.29681 10.5199 6.16681 10.0445 6.16681C9.50963 6.16681 9.11219 6.32281 8.85219 6.63482C8.81762 6.6763 8.7847 6.71739 8.75341 6.75808C8.47555 7.1195 7.98148 7.3585 7.55732 7.19141C7.17746 7.04176 6.97311 6.6146 7.17985 6.26255C7.3849 5.91336 7.65263 5.59916 7.98304 5.31995C8.51047 4.87423 9.19762 4.65137 10.0445 4.65137C10.8765 4.65137 11.5971 4.87423 12.2062 5.31995C12.8154 5.76567 13.12 6.40453 13.12 7.23654C13.12 7.72683 13.0085 8.14655 12.7857 8.4957C12.5628 8.84484 12.2582 9.21256 11.8719 9.59885C11.3519 10.0891 11.0362 10.4754 10.9248 10.7577C10.8854 10.8576 10.8529 10.9704 10.8275 11.0963Z" fill="black"/>
</svg>
