<svg width="20" height="20" viewBox="0 0 20 20" fill="none" xmlns="http://www.w3.org/2000/svg">
<circle cx="10" cy="10" r="9.25" stroke="black" stroke-width="1.5"/>
<path d="M5.81494 7.0293C5.94376 7.02939 6.06835 7.06768 6.17334 7.1377L6.271 7.21777C6.3915 7.33835 6.45943 7.50243 6.45947 7.67383C6.45947 7.80237 6.42126 7.92701 6.35107 8.03223L6.271 8.12988C6.14971 8.25117 5.98524 8.31922 5.81494 8.31934C5.68696 8.31934 5.56204 8.28119 5.45654 8.21094L5.35791 8.12988C5.23731 8.0091 5.16943 7.84493 5.16943 7.67383L5.18213 7.54688C5.19871 7.46415 5.23113 7.38544 5.27783 7.31543L5.35791 7.21777C5.47814 7.09754 5.64284 7.0293 5.81494 7.0293ZM14.186 7.0293C14.3152 7.0293 14.4403 7.06766 14.5454 7.1377L14.6431 7.21777C14.7636 7.33837 14.8315 7.50247 14.8315 7.67383C14.8315 7.80234 14.7933 7.92699 14.7231 8.03223L14.6431 8.12988C14.5219 8.25106 14.3568 8.31934 14.186 8.31934C14.0584 8.31925 13.934 8.28116 13.8286 8.21094L13.73 8.12988C13.6094 8.00911 13.5415 7.84497 13.5415 7.67383L13.5542 7.54688C13.5708 7.46414 13.6032 7.38544 13.6499 7.31543L13.73 7.21777C13.8202 7.12758 13.935 7.06686 14.0591 7.04199L14.186 7.0293Z" fill="black" stroke="black" stroke-width="1.5"/>
<mask id="path-3-inside-1_1300_471" fill="white">
<path d="M6.99846 11.4032C7.08332 11.3943 7.16928 11.4012 7.25155 11.4241C7.3378 11.4481 7.41842 11.489 7.48885 11.5442C7.55935 11.5996 7.61885 11.6682 7.66268 11.7464C7.70652 11.8246 7.73431 11.9112 7.74471 12.0003C7.8116 12.5502 8.07671 13.0571 8.49081 13.4251C8.90498 13.7931 9.4397 13.9976 9.99374 13.9993C10.5478 14.001 11.0841 13.8003 11.5006 13.4349C11.9171 13.0694 12.1851 12.5636 12.2555 12.014C12.2847 11.8406 12.38 11.6853 12.5211 11.5804C12.6625 11.4754 12.8395 11.4283 13.0142 11.4505C13.189 11.4727 13.348 11.5624 13.4586 11.6995C13.5691 11.8364 13.623 12.0105 13.608 12.1858C13.4944 13.0644 13.0634 13.8716 12.3971 14.4554C11.7308 15.0391 10.8746 15.3596 9.98885 15.3567C9.10294 15.3538 8.24799 15.028 7.58553 14.4397C6.92313 13.8515 6.49796 13.0417 6.39022 12.1624C6.3792 12.0734 6.38672 11.9832 6.41073 11.8968C6.43476 11.8103 6.47545 11.729 6.53085 11.6585C6.58618 11.5881 6.65489 11.5294 6.733 11.4856C6.81125 11.4418 6.89781 11.414 6.9869 11.4036L6.99846 11.4032Z"/>
</mask>
<path d="M6.99846 11.4032C7.08332 11.3943 7.16928 11.4012 7.25155 11.4241C7.3378 11.4481 7.41842 11.489 7.48885 11.5442C7.55935 11.5996 7.61885 11.6682 7.66268 11.7464C7.70652 11.8246 7.73431 11.9112 7.74471 12.0003C7.8116 12.5502 8.07671 13.0571 8.49081 13.4251C8.90498 13.7931 9.4397 13.9976 9.99374 13.9993C10.5478 14.001 11.0841 13.8003 11.5006 13.4349C11.9171 13.0694 12.1851 12.5636 12.2555 12.014C12.2847 11.8406 12.38 11.6853 12.5211 11.5804C12.6625 11.4754 12.8395 11.4283 13.0142 11.4505C13.189 11.4727 13.348 11.5624 13.4586 11.6995C13.5691 11.8364 13.623 12.0105 13.608 12.1858C13.4944 13.0644 13.0634 13.8716 12.3971 14.4554C11.7308 15.0391 10.8746 15.3596 9.98885 15.3567C9.10294 15.3538 8.24799 15.028 7.58553 14.4397C6.92313 13.8515 6.49796 13.0417 6.39022 12.1624C6.3792 12.0734 6.38672 11.9832 6.41073 11.8968C6.43476 11.8103 6.47545 11.729 6.53085 11.6585C6.58618 11.5881 6.65489 11.5294 6.733 11.4856C6.81125 11.4418 6.89781 11.414 6.9869 11.4036L6.99846 11.4032Z" fill="black"/>
<path d="M6.98593 11.4046L6.89408 10.6602L7.02229 12.1537L6.98593 11.4046ZM6.99846 11.4032L6.96907 10.6537L6.94462 10.6547L6.92029 10.6572L6.99846 11.4032ZM7.08651 11.3997L7.12288 12.1488L7.05712 10.6503L7.08651 11.3997ZM6.98593 11.4046L7.07777 12.1489C7.07739 12.149 7.07701 12.149 7.07663 12.1491L6.99846 11.4032L6.92029 10.6572C6.91154 10.6582 6.90281 10.6591 6.89408 10.6602L6.98593 11.4046ZM6.99846 11.4032L7.02785 12.1526L7.1159 12.1491L7.08651 11.3997L7.05712 10.6503L6.96907 10.6537L6.99846 11.4032ZM7.08651 11.3997L7.05015 10.6506L6.94956 10.6555L6.98593 11.4046L7.02229 12.1537L7.12288 12.1488L7.08651 11.3997ZM6.99846 11.4032L7.05724 12.902L7.10613 12.9001L7.1548 12.895L6.99846 11.4032ZM7.25155 11.4241L7.65392 9.97909L7.65341 9.97895L7.25155 11.4241ZM7.48885 11.5442L8.41524 10.3645L8.41479 10.3641L7.48885 11.5442ZM7.66268 11.7464L8.97131 11.0132L8.97109 11.0128L7.66268 11.7464ZM7.74471 12.0003L6.25481 12.1742L6.25569 12.1814L7.74471 12.0003ZM8.49081 13.4251L7.49437 14.5463L7.49449 14.5464L8.49081 13.4251ZM9.99374 13.9993L9.98898 15.4993H9.98908L9.99374 13.9993ZM11.5006 13.4349L12.4899 14.5623L12.4899 14.5623L11.5006 13.4349ZM12.2555 12.014L10.7764 11.7643L10.7714 11.7939L10.7676 11.8236L12.2555 12.014ZM12.5211 11.5804L11.6268 10.3761L11.6258 10.3769L12.5211 11.5804ZM13.0142 11.4505L13.2036 9.96247L13.2035 9.96247L13.0142 11.4505ZM13.4586 11.6995L14.626 10.7576L14.6259 10.7575L13.4586 11.6995ZM13.608 12.1858L15.0956 12.3781L15.0997 12.3462L15.1025 12.3141L13.608 12.1858ZM12.3971 14.4554L13.3855 15.5836L13.3855 15.5836L12.3971 14.4554ZM9.98885 15.3567L9.98387 16.8567L9.98402 16.8567L9.98885 15.3567ZM7.58553 14.4397L6.58956 15.5614L6.58959 15.5614L7.58553 14.4397ZM6.39022 12.1624L7.87909 11.98L7.87885 11.978L6.39022 12.1624ZM6.41073 11.8968L4.96556 11.4949L4.96549 11.4952L6.41073 11.8968ZM6.53085 11.6585L5.35157 10.7315L5.3511 10.7321L6.53085 11.6585ZM6.733 11.4856L5.99986 10.177L5.99958 10.1772L6.733 11.4856ZM6.9869 11.4036L6.92812 9.90476L6.87038 9.90702L6.81298 9.91372L6.9869 11.4036ZM6.99846 11.4032L7.1548 12.895C7.05473 12.9055 6.95122 12.8975 6.84969 12.8693L7.25155 11.4241L7.65341 9.97895C7.38734 9.90496 7.11192 9.88305 6.84212 9.91132L6.99846 11.4032ZM7.25155 11.4241L6.84918 12.8691C6.74476 12.8401 6.64752 12.7907 6.56292 12.7243L7.48885 11.5442L8.41479 10.3641C8.18931 10.1872 7.93084 10.0562 7.65392 9.97909L7.25155 11.4241ZM7.48885 11.5442L6.56247 12.724C6.48269 12.6613 6.41034 12.5799 6.35428 12.4799L7.66268 11.7464L8.97109 11.0128C8.82737 10.7565 8.636 10.5378 8.41524 10.3645L7.48885 11.5442ZM7.66268 11.7464L6.35405 12.4795C6.29979 12.3826 6.26704 12.2788 6.25483 12.1742L7.74471 12.0003L9.2346 11.8264C9.20159 11.5436 9.11326 11.2666 8.97131 11.0132L7.66268 11.7464ZM7.74471 12.0003L6.25569 12.1814C6.36662 13.0935 6.80639 13.9349 7.49437 14.5463L8.49081 13.4251L9.48725 12.3039C9.34702 12.1793 9.25659 12.007 9.23374 11.8192L7.74471 12.0003ZM8.49081 13.4251L7.49449 14.5464C8.18164 15.157 9.06885 15.4964 9.98898 15.4993L9.99374 13.9993L9.99849 12.4993C9.81054 12.4987 9.62832 12.4292 9.48712 12.3038L8.49081 13.4251ZM9.99374 13.9993L9.98908 15.4993C10.9084 15.5022 11.7982 15.1693 12.4899 14.5623L11.5006 13.4349L10.5112 12.3074C10.3699 12.4314 10.1873 12.4999 9.99839 12.4993L9.99374 13.9993ZM11.5006 13.4349L12.4899 14.5623C13.1825 13.9546 13.6268 13.1149 13.7433 12.2043L12.2555 12.014L10.7676 11.8236C10.7435 12.0122 10.6516 12.1842 10.5112 12.3074L11.5006 13.4349ZM12.2555 12.014L13.7345 12.2636C13.6992 12.4729 13.5845 12.6588 13.4164 12.7839L12.5211 11.5804L11.6258 10.3769C11.1756 10.7118 10.8702 11.2082 10.7764 11.7643L12.2555 12.014ZM12.5211 11.5804L13.4154 12.7846C13.2494 12.9079 13.0389 12.9657 12.8249 12.9385L13.0142 11.4505L13.2035 9.96247C12.6401 9.89079 12.0756 10.0428 11.6268 10.3761L12.5211 11.5804ZM13.0142 11.4505L12.8249 12.9385C12.6102 12.9112 12.4206 12.8018 12.2913 12.6415L13.4586 11.6995L14.6259 10.7575C14.2753 10.323 13.7677 10.0342 13.2036 9.96247L13.0142 11.4505ZM13.4586 11.6995L12.2912 12.6414C12.1615 12.4807 12.0951 12.2724 12.1135 12.0576L13.608 12.1858L15.1025 12.3141C15.151 11.7487 14.9766 11.1922 14.626 10.7576L13.4586 11.6995ZM13.608 12.1858L12.1204 11.9935C12.0537 12.5092 11.8006 12.9837 11.4086 13.3271L12.3971 14.4554L13.3855 15.5836C14.3262 14.7594 14.9351 13.6197 15.0956 12.3781L13.608 12.1858ZM12.3971 14.4554L11.4086 13.3271C11.017 13.6702 10.5141 13.8584 9.99369 13.8567L9.98885 15.3567L9.98402 16.8567C11.2352 16.8608 12.4446 16.408 13.3855 15.5836L12.3971 14.4554ZM9.98885 15.3567L9.99384 13.8567C9.47263 13.855 8.97022 13.6633 8.58148 13.3181L7.58553 14.4397L6.58959 15.5614C7.52577 16.3927 8.73326 16.8526 9.98387 16.8567L9.98885 15.3567ZM7.58553 14.4397L8.58151 13.3181C8.19217 12.9724 7.94237 12.4964 7.87909 11.98L6.39022 12.1624L4.90136 12.3448C5.05355 13.5869 5.65409 14.7307 6.58956 15.5614L7.58553 14.4397ZM6.39022 12.1624L7.87885 11.978C7.8933 12.0947 7.88232 12.2035 7.85597 12.2984L6.41073 11.8968L4.96549 11.4952C4.89113 11.7628 4.8651 12.0521 4.9016 12.3468L6.39022 12.1624ZM6.41073 11.8968L7.8559 12.2986C7.82817 12.3983 7.78026 12.4962 7.71059 12.5849L6.53085 11.6585L5.3511 10.7321C5.17064 10.9619 5.04135 11.2224 4.96556 11.4949L6.41073 11.8968ZM6.53085 11.6585L7.71012 12.5855C7.64281 12.6711 7.55977 12.7418 7.46642 12.7941L6.733 11.4856L5.99958 10.1772C5.75002 10.317 5.52955 10.5051 5.35158 10.7315L6.53085 11.6585ZM6.733 11.4856L7.46613 12.7943C7.36926 12.8485 7.2654 12.8813 7.16082 12.8935L6.9869 11.4036L6.81298 9.91372C6.53021 9.94673 6.25324 10.0351 5.99986 10.177L6.733 11.4856ZM6.9869 11.4036L7.04568 12.9025L7.05724 12.902L6.99846 11.4032L6.93968 9.9043L6.92812 9.90476L6.9869 11.4036Z" fill="black" mask="url(#path-3-inside-1_1300_471)"/>
</svg>
