<svg width="18" height="18" viewBox="0 0 18 18" fill="none" xmlns="http://www.w3.org/2000/svg">
<path d="M13.2861 0C13.5621 0.000184939 13.7861 0.223972 13.7861 0.5V17.0918C13.7861 17.3507 13.5892 17.5614 13.3369 17.5869H12.7246V17.5918H0.5C0.224075 17.5916 3.50261e-05 17.3678 0 17.0918V0.5C0 0.224 0.224054 0.000230759 0.5 0H13.2861ZM17.501 9.63086C17.6388 9.63114 17.7509 9.74302 17.751 9.88086V15.3369C17.751 16.5794 16.7434 17.5866 15.501 17.5869H15.2227C15.2468 17.4923 15.2653 17.3954 15.2754 17.2959L15.2861 17.0918V9.63086H17.501ZM2.69922 7.04883C2.28508 7.04891 1.94922 7.38467 1.94922 7.79883C1.94945 8.21279 2.28522 8.54875 2.69922 8.54883H7.5293C7.94332 8.54877 8.27907 8.21281 8.2793 7.79883C8.2793 7.38465 7.94346 7.04889 7.5293 7.04883H2.69922ZM2.69922 3.54395C2.28509 3.54403 1.94924 3.8798 1.94922 4.29395C1.94922 4.70811 2.28508 5.04386 2.69922 5.04395H11.0869C11.5011 5.04395 11.8369 4.70816 11.8369 4.29395C11.8369 3.87975 11.5011 3.54395 11.0869 3.54395H2.69922Z" fill="black"/>
</svg>
