<svg width="20" height="20" viewBox="0 0 20 20" fill="none" xmlns="http://www.w3.org/2000/svg">
<path d="M10 0C15.523 0 20 4.477 20 10C20 15.523 15.523 20 10 20C4.47734 19.9996 0 15.5228 0 10C0 4.47724 4.47734 0.000395794 10 0ZM6.95605 12.6084C6.5805 12.6084 6.27637 12.9125 6.27637 13.2881C6.27637 13.6636 6.5805 13.9678 6.95605 13.9678H13.0449C13.4204 13.9677 13.7246 13.6636 13.7246 13.2881C13.7246 12.9126 13.4204 12.6085 13.0449 12.6084H6.95605ZM4.43945 7.17383C4.0639 7.17383 3.75977 7.47796 3.75977 7.85352C3.75977 8.22907 4.0639 8.5332 4.43945 8.5332H6.95605C7.33144 8.53301 7.63672 8.22895 7.63672 7.85352C7.63672 7.47808 7.33144 7.17403 6.95605 7.17383H4.43945ZM13.0449 7.17383C12.6694 7.17383 12.3652 7.47796 12.3652 7.85352C12.3652 8.22907 12.6694 8.5332 13.0449 8.5332H15.5615C15.937 8.53314 16.2422 8.22903 16.2422 7.85352C16.2422 7.478 15.937 7.17389 15.5615 7.17383H13.0449Z" fill="black"/>
</svg>
