<svg width="21" height="18" viewBox="0 0 21 18" fill="none" xmlns="http://www.w3.org/2000/svg">
<path d="M21 6.55997C20.9992 6.19927 20.887 5.84763 20.6786 5.55317C20.4703 5.2587 20.1761 5.0358 19.8362 4.91497C19.7695 4.89326 19.6987 4.88671 19.6291 4.8958C19.5594 4.90488 19.4927 4.92936 19.4337 4.96747C19.3776 5.00913 19.3318 5.06317 19.3 5.12539C19.2681 5.1876 19.251 5.25633 19.25 5.32622V8.67747C19.251 8.74736 19.2681 8.81608 19.3 8.8783C19.3318 8.94051 19.3776 8.99455 19.4337 9.03622C19.4925 9.07491 19.5592 9.09975 19.6289 9.10884C19.6987 9.11794 19.7696 9.11106 19.8362 9.08872C20.1775 8.96738 20.4727 8.74315 20.6812 8.44695C20.8896 8.15074 21.001 7.79716 21 7.43497V6.55997ZM17.9375 1.30997C17.937 1.0894 17.8806 0.872551 17.7734 0.679731C17.6663 0.486912 17.512 0.324424 17.325 0.207474C16.5987 -0.256276 16.0387 0.128724 14.945 0.662473C12.23 2.12724 9.20881 2.93349 6.12501 3.01622C6.06368 3.01591 6.00297 3.0285 5.94682 3.05317C5.89068 3.07784 5.84034 3.11404 5.79909 3.15942C5.75784 3.2048 5.72658 3.25835 5.70736 3.31658C5.68814 3.37482 5.68137 3.43645 5.68751 3.49747V11.0137C5.70396 12.3506 6.08825 13.6572 6.79825 14.7901C7.50825 15.923 8.51653 16.8385 9.7125 17.4362C9.92136 17.5395 10.1627 17.5555 10.3834 17.4809C10.6041 17.4062 10.7861 17.2469 10.8894 17.0381C10.9926 16.8292 11.0087 16.5879 10.9341 16.3672C10.8594 16.1465 10.7001 15.9645 10.4913 15.8612C9.6022 15.4201 8.84946 14.746 8.31323 13.9109C7.777 13.0757 7.47737 12.1107 7.44626 11.1187C10.0612 11.3219 12.607 12.0574 14.9275 13.28C16.135 13.8487 16.625 14.155 17.3425 13.7262C17.527 13.6058 17.6781 13.4409 17.7821 13.2467C17.8861 13.0525 17.9395 12.8352 17.9375 12.615V1.30997ZM4.37501 3.49747C4.37535 3.43885 4.36391 3.38076 4.34136 3.32665C4.31882 3.27253 4.28562 3.22351 4.24376 3.18247C4.16157 3.10325 4.05166 3.05929 3.93751 3.05997H3.06251C2.66001 3.05882 2.26126 3.13724 1.88918 3.29074C1.5171 3.44423 1.17903 3.66977 0.894422 3.95438C0.609812 4.23899 0.384275 4.57706 0.230779 4.94914C0.0772831 5.32122 -0.00114237 5.71997 1.2573e-05 6.12247V7.87247C0.00115717 8.27538 0.0817963 8.67411 0.237309 9.0458C0.392822 9.41749 0.620152 9.75485 0.906272 10.0385C1.19239 10.3222 1.53168 10.5466 1.90469 10.699C2.2777 10.8513 2.6771 10.9285 3.08001 10.9262H3.95501C4.06648 10.9218 4.17205 10.8749 4.25012 10.7952C4.32819 10.7155 4.37287 10.609 4.37501 10.4975V3.49747Z" fill="black"/>
</svg>
