<svg width="26" height="17" viewBox="0 0 26 17" fill="none" xmlns="http://www.w3.org/2000/svg">
<path d="M9.36914 0.292114V4.77356H11.0703V5.95422H9.36914V11.7433H7.95996V0.292114H9.36914ZM6.33496 1.48547C6.33496 4.86243 4.93848 7.82043 1.11719 9.69934L0.317383 8.60754C3.11035 7.21741 4.62109 5.26233 4.91309 2.65344H0.939453V1.48547H6.33496Z" fill="black"/>
<path d="M23.0461 0V6.62402H25.6252V8.08984H23.0461V16.6064H21.2834V0H23.0461ZM18.7043 1.74414C18.6857 6.5498 16.5705 10.8359 11.0969 13.5449L10.1135 12.1719C14.279 10.0938 16.5427 7.08789 16.9045 3.20996H10.9484V1.74414H18.7043Z" fill="black"/>
</svg>
