<svg width="24" height="24" viewBox="0 0 24 24" fill="none" xmlns="http://www.w3.org/2000/svg">
<path d="M18.5 4.13C18.5 3.19 17.49 2.61 16.68 3.08L13.05 5.18C10.92 6.41 8.51 7.08 6.05 7.13H4.5C3.12 7.13 2 8.25 2 9.63V13.37C2 14.75 3.12 15.87 4.5 15.87H6.05C6.16 17.42 6.77 18.88 7.8 20.05C8.23 20.54 8.97 20.59 9.46 20.16C9.95 19.73 10 18.99 9.57 18.5C8.91 17.75 8.51 16.83 8.41 15.84C10.03 16.04 11.61 16.54 13.05 17.32L16.68 19.42C17.49 19.89 18.5 19.31 18.5 18.37V4.13Z" fill="black"/>
<path d="M20 9.2C21.25 10.45 21.25 12.55 20 13.8" stroke="black" stroke-width="2" stroke-linecap="round"/>
</svg>
