<svg width="20" height="20" viewBox="0 0 20 20" fill="none" xmlns="http://www.w3.org/2000/svg">
<circle cx="10" cy="10" r="9.25" stroke="black" stroke-width="1.5"/>
<path d="M10 0.75C11.0897 0.75 12.244 1.5766 13.1699 3.28613C14.0798 4.96619 14.666 7.33852 14.666 10C14.666 12.6615 14.0798 15.0338 13.1699 16.7139C12.244 18.4234 11.0897 19.25 10 19.25C8.91029 19.25 7.75599 18.4234 6.83008 16.7139C5.92016 15.0338 5.33398 12.6615 5.33398 10C5.33398 7.33852 5.92016 4.96619 6.83008 3.28613C7.75599 1.5766 8.91029 0.75 10 0.75Z" stroke="black" stroke-width="1.5"/>
<path d="M0.802734 7.5H18.9922" stroke="black" stroke-width="1.5"/>
<path d="M0.802734 12.5H18.9922" stroke="black" stroke-width="1.5"/>
</svg>
