<svg width="23" height="24" viewBox="0 0 23 24" fill="none" xmlns="http://www.w3.org/2000/svg">
<path d="M2.21698 23.9986C1.58591 23.9986 1.05865 23.7874 0.635187 23.3648C0.211729 22.9423 0 22.4155 0 21.7844V18.2326C0 17.9655 0.0439006 17.7025 0.131702 17.4437C0.219503 17.1849 0.360351 16.9562 0.554245 16.7578L3.92087 12.9576C4.04892 12.8021 4.21217 12.723 4.41064 12.7203C4.60911 12.7175 4.78334 12.7916 4.93333 12.9425C5.06138 13.0706 5.12814 13.221 5.13363 13.3939C5.13912 13.5667 5.07784 13.7286 4.9498 13.8795L1.42677 17.8786H21.156L17.7029 13.9481C17.5749 13.7972 17.5136 13.6353 17.5191 13.4625C17.5246 13.2896 17.5913 13.1392 17.7194 13.0111C17.8703 12.8602 18.0445 12.7861 18.2421 12.7889C18.4406 12.7916 18.6038 12.8712 18.7319 13.0276L22.0299 16.7578C22.2238 16.9562 22.3646 17.1849 22.4524 17.4437C22.5402 17.7025 22.5841 17.9655 22.5841 18.2326V21.7844C22.5841 22.4155 22.3724 22.9423 21.9489 23.3648C21.5255 23.7874 20.9987 23.9991 20.3685 24L2.21698 23.9986ZM2.21698 22.6267H20.3671C20.5958 22.6267 20.7938 22.5435 20.9612 22.377C21.1286 22.2106 21.2122 22.013 21.2122 21.7844V19.2505H1.37189V21.7844C1.37189 22.013 1.45558 22.2106 1.62295 22.377C1.79032 22.5444 1.98833 22.6281 2.21698 22.6281M9.77612 13.9618L5.67827 9.81186C5.23927 9.37286 5.02571 8.84971 5.0376 8.24241C5.04949 7.63512 5.27448 7.11243 5.71257 6.67434L11.7215 0.66544C12.1605 0.226434 12.6804 0.00464399 13.2813 7.1009e-05C13.8822 -0.00450197 14.4021 0.2118 14.8412 0.648977L18.9637 4.77289C19.4027 5.21007 19.6245 5.72682 19.6291 6.32313C19.6336 6.91945 19.4173 7.43666 18.9802 7.87475L12.8862 13.9687C12.4472 14.4068 11.9286 14.6245 11.3305 14.6217C10.7314 14.619 10.2128 14.399 9.77475 13.9618M17.9677 6.93774C18.1076 6.79689 18.1776 6.59477 18.1776 6.33137C18.1776 6.06796 18.1076 5.86584 17.9677 5.72499L13.8959 1.6532C13.7551 1.51327 13.5529 1.4433 13.2895 1.4433C13.0261 1.4433 12.824 1.51327 12.6832 1.6532L6.65506 7.67994C6.51421 7.81987 6.44379 8.022 6.44379 8.28632C6.44379 8.55063 6.51421 8.75276 6.65506 8.89269L10.7268 12.9645C10.8668 13.1053 11.0689 13.1757 11.3332 13.1757C11.5975 13.1757 11.7997 13.1053 11.9396 12.9645L17.9677 6.93774Z" fill="black"/>
</svg>
