<?xml version="1.0" encoding="UTF-8"?><svg id="_레이어_2" xmlns="http://www.w3.org/2000/svg" xmlns:xlink="http://www.w3.org/1999/xlink" viewBox="0 0 48 48"><defs><style>.cls-1{fill:#fff;}.cls-2{clip-path:url(#clippath-2);}.cls-3{fill:#f9bb00;}.cls-4{clip-path:url(#clippath-1);}.cls-5{fill:#3e82f1;}.cls-6{fill:#e74133;}.cls-7{fill:#32a753;}.cls-8{clip-path:url(#clippath);}.cls-9{clip-rule:evenodd;fill:none;}.cls-10{clip-path:url(#clippath-3);}</style><clipPath id="clippath"><path class="cls-9" d="m37.62,24.32c0-.99-.09-1.93-.25-2.84h-13.09v5.38h7.48c-.32,1.74-1.3,3.21-2.77,4.2v3.49h4.49c2.63-2.42,4.15-5.98,4.15-10.22h0Z"/></clipPath><clipPath id="clippath-1"><path class="cls-9" d="m24.28,37.9c3.75,0,6.9-1.24,9.2-3.37l-4.49-3.49c-1.24.83-2.84,1.33-4.71,1.33-3.62,0-6.69-2.45-7.78-5.73h-4.64v3.6c2.29,4.54,6.99,7.66,12.42,7.66h0Z"/></clipPath><clipPath id="clippath-2"><path class="cls-9" d="m16.5,26.64c-.28-.83-.44-1.73-.44-2.64s.16-1.81.44-2.64v-3.6h-4.64c-.94,1.88-1.48,4-1.48,6.24s.54,4.37,1.48,6.24l4.64-3.6h0Z"/></clipPath><clipPath id="clippath-3"><path class="cls-9" d="m24.28,15.63c2.04,0,3.87.7,5.31,2.08l3.99-3.99c-2.41-2.24-5.55-3.62-9.3-3.62-5.43,0-10.14,3.12-12.42,7.66l4.64,3.6c1.09-3.29,4.16-5.73,7.78-5.73h0Z"/></clipPath></defs><g id="Button"><g><circle class="cls-1" cx="24" cy="24" r="24"/><g><g class="cls-8"><rect class="cls-5" x="16.55" y="13.75" width="28.79" height="28.51"/></g><g class="cls-4"><rect class="cls-7" x="4.13" y="18.92" width="37.07" height="26.71"/></g><g class="cls-2"><rect class="cls-3" x="2.65" y="10.03" width="21.57" height="27.93"/></g><g class="cls-10"><rect class="cls-6" x="4.13" y="2.37" width="37.17" height="26.71"/></g></g></g></g></svg>