<svg width="20" height="20" viewBox="0 0 20 20" fill="none" xmlns="http://www.w3.org/2000/svg">
<circle cx="10" cy="10" r="9.25" stroke="black" stroke-width="1.5"/>
<path d="M5.81494 7.0293C5.94376 7.02939 6.06835 7.06768 6.17334 7.1377L6.271 7.21777C6.3915 7.33835 6.45943 7.50243 6.45947 7.67383C6.45947 7.80237 6.42126 7.92701 6.35107 8.03223L6.271 8.12988C6.14971 8.25117 5.98524 8.31922 5.81494 8.31934C5.68696 8.31934 5.56204 8.28119 5.45654 8.21094L5.35791 8.12988C5.23731 8.0091 5.16943 7.84493 5.16943 7.67383L5.18213 7.54688C5.19871 7.46415 5.23113 7.38544 5.27783 7.31543L5.35791 7.21777C5.47814 7.09754 5.64284 7.0293 5.81494 7.0293ZM14.186 7.0293C14.3152 7.0293 14.4403 7.06766 14.5454 7.1377L14.6431 7.21777C14.7636 7.33837 14.8315 7.50247 14.8315 7.67383C14.8315 7.80234 14.7933 7.92699 14.7231 8.03223L14.6431 8.12988C14.5219 8.25106 14.3568 8.31934 14.186 8.31934C14.0584 8.31925 13.934 8.28116 13.8286 8.21094L13.73 8.12988C13.6094 8.00911 13.5415 7.84497 13.5415 7.67383L13.5542 7.54688C13.5708 7.46414 13.6032 7.38544 13.6499 7.31543L13.73 7.21777C13.8202 7.12758 13.935 7.06686 14.0591 7.04199L14.186 7.0293Z" fill="black" stroke="black" stroke-width="1.5"/>
<mask id="path-3-inside-1_1299_399" fill="white">
<path d="M12.9971 15.3527C12.9123 15.3616 12.8263 15.3546 12.7441 15.3317C12.6578 15.3077 12.5772 15.2669 12.5068 15.2116C12.4363 15.1563 12.3768 15.0877 12.3329 15.0095C12.2891 14.9312 12.2613 14.8447 12.2509 14.7556C12.184 14.2056 11.9189 13.6988 11.5048 13.3308C11.0906 12.9628 10.5559 12.7583 10.0019 12.7566C9.44777 12.7548 8.91152 12.9555 8.49503 13.321C8.07855 13.6865 7.81046 14.1923 7.74015 14.7419C7.71089 14.9153 7.61559 15.0706 7.47452 15.1755C7.33312 15.2805 7.15608 15.3276 6.98136 15.3054C6.80664 15.2832 6.64763 15.1934 6.53702 15.0564C6.42655 14.9194 6.37257 14.7453 6.38761 14.57C6.50118 13.6914 6.9322 12.8843 7.59855 12.3005C8.26481 11.7168 9.12097 11.3963 10.0068 11.3991C10.8927 11.4021 11.7476 11.7279 12.4101 12.3161C13.0725 12.9043 13.4976 13.7142 13.6054 14.5935C13.6164 14.6824 13.6089 14.7727 13.5849 14.8591C13.5608 14.9455 13.5202 15.0268 13.4648 15.0974C13.4094 15.1678 13.3407 15.2264 13.2626 15.2702C13.1844 15.3141 13.0978 15.3419 13.0087 15.3523L12.9971 15.3527Z"/>
</mask>
<path d="M12.9971 15.3527C12.9123 15.3616 12.8263 15.3546 12.7441 15.3317C12.6578 15.3077 12.5772 15.2669 12.5068 15.2116C12.4363 15.1563 12.3768 15.0877 12.3329 15.0095C12.2891 14.9312 12.2613 14.8447 12.2509 14.7556C12.184 14.2056 11.9189 13.6988 11.5048 13.3308C11.0906 12.9628 10.5559 12.7583 10.0019 12.7566C9.44777 12.7548 8.91152 12.9555 8.49503 13.321C8.07855 13.6865 7.81046 14.1923 7.74015 14.7419C7.71089 14.9153 7.61559 15.0706 7.47452 15.1755C7.33312 15.2805 7.15608 15.3276 6.98136 15.3054C6.80664 15.2832 6.64763 15.1934 6.53702 15.0564C6.42655 14.9194 6.37257 14.7453 6.38761 14.57C6.50118 13.6914 6.9322 12.8843 7.59855 12.3005C8.26481 11.7168 9.12097 11.3963 10.0068 11.3991C10.8927 11.4021 11.7476 11.7279 12.4101 12.3161C13.0725 12.9043 13.4976 13.7142 13.6054 14.5935C13.6164 14.6824 13.6089 14.7727 13.5849 14.8591C13.5608 14.9455 13.5202 15.0268 13.4648 15.0974C13.4094 15.1678 13.3407 15.2264 13.2626 15.2702C13.1844 15.3141 13.0978 15.3419 13.0087 15.3523L12.9971 15.3527Z" fill="black"/>
<path d="M13.0097 15.3513L13.1015 16.0956L12.9733 14.6022L13.0097 15.3513ZM12.9971 15.3527L13.0265 16.1021L13.051 16.1012L13.0753 16.0986L12.9971 15.3527ZM12.9091 15.3562L12.8727 14.607L12.9385 16.1056L12.9091 15.3562ZM13.0097 15.3513L12.9178 14.6069C12.9182 14.6069 12.9186 14.6068 12.919 14.6068L12.9971 15.3527L13.0753 16.0986C13.0841 16.0977 13.0928 16.0967 13.1015 16.0956L13.0097 15.3513ZM12.9971 15.3527L12.9678 14.6033L12.8797 14.6067L12.9091 15.3562L12.9385 16.1056L13.0265 16.1021L12.9971 15.3527ZM12.9091 15.3562L12.9455 16.1053L13.046 16.1004L13.0097 15.3513L12.9733 14.6022L12.8727 14.607L12.9091 15.3562ZM12.9971 15.3527L12.9384 13.8539L12.8895 13.8558L12.8408 13.8609L12.9971 15.3527ZM12.7441 15.3317L12.3417 16.7768L12.3422 16.7769L12.7441 15.3317ZM12.5068 15.2116L11.5804 16.3914L11.5808 16.3917L12.5068 15.2116ZM12.3329 15.0095L11.0243 15.7426L11.0245 15.743L12.3329 15.0095ZM12.2509 14.7556L13.7408 14.5817L13.7399 14.5745L12.2509 14.7556ZM11.5048 13.3308L12.5012 12.2096L12.5011 12.2095L11.5048 13.3308ZM10.0019 12.7566L10.0066 11.2566L10.0065 11.2566L10.0019 12.7566ZM8.49503 13.321L7.5057 12.1935L7.50569 12.1935L8.49503 13.321ZM7.74015 14.7419L9.21923 14.9915L9.22422 14.962L9.22802 14.9322L7.74015 14.7419ZM7.47452 15.1755L8.36881 16.3798L8.36985 16.379L7.47452 15.1755ZM6.98136 15.3054L6.79205 16.7934L6.79206 16.7934L6.98136 15.3054ZM6.53702 15.0564L5.36961 15.9982L5.36969 15.9983L6.53702 15.0564ZM6.38761 14.57L4.89999 14.3777L4.89586 14.4097L4.8931 14.4418L6.38761 14.57ZM7.59855 12.3005L6.61008 11.1723L6.61008 11.1723L7.59855 12.3005ZM10.0068 11.3991L10.0117 9.89914L10.0116 9.89914L10.0068 11.3991ZM12.4101 12.3161L13.406 11.1945L13.406 11.1945L12.4101 12.3161ZM13.6054 14.5935L12.1165 14.7759L12.1168 14.7778L13.6054 14.5935ZM13.5849 14.8591L15.03 15.261L15.0301 15.2607L13.5849 14.8591ZM13.4648 15.0974L14.644 16.0244L14.6445 16.0238L13.4648 15.0974ZM13.2626 15.2702L13.9957 16.5789L13.996 16.5787L13.2626 15.2702ZM13.0087 15.3523L13.0675 16.8511L13.1252 16.8488L13.1826 16.8421L13.0087 15.3523ZM12.9971 15.3527L12.8408 13.8609C12.9409 13.8504 13.0444 13.8583 13.1459 13.8866L12.7441 15.3317L12.3422 16.7769C12.6083 16.8509 12.8837 16.8728 13.1535 16.8445L12.9971 15.3527ZM12.7441 15.3317L13.1464 13.8867C13.2508 13.9158 13.3481 13.9651 13.4327 14.0315L12.5068 15.2116L11.5808 16.3917C11.8063 16.5687 12.0648 16.6997 12.3417 16.7768L12.7441 15.3317ZM12.5068 15.2116L13.4331 14.0319C13.5129 14.0945 13.5853 14.176 13.6413 14.2759L12.3329 15.0095L11.0245 15.743C11.1682 15.9994 11.3596 16.218 11.5804 16.3914L12.5068 15.2116ZM12.3329 15.0095L13.6416 14.2763C13.6958 14.3732 13.7286 14.4771 13.7408 14.5817L12.2509 14.7556L10.761 14.9295C10.794 15.2123 10.8823 15.4892 11.0243 15.7426L12.3329 15.0095ZM12.2509 14.7556L13.7399 14.5745C13.629 13.6624 13.1892 12.821 12.5012 12.2096L11.5048 13.3308L10.5084 14.452C10.6486 14.5766 10.739 14.7489 10.7619 14.9367L12.2509 14.7556ZM11.5048 13.3308L12.5011 12.2095C11.814 11.5989 10.9268 11.2595 10.0066 11.2566L10.0019 12.7566L9.99711 14.2565C10.1851 14.2571 10.3673 14.3266 10.5085 14.4521L11.5048 13.3308ZM10.0019 12.7566L10.0065 11.2566C9.08723 11.2537 8.19739 11.5866 7.5057 12.1935L8.49503 13.321L9.48437 14.4485C9.62566 14.3245 9.80831 14.256 9.99721 14.2565L10.0019 12.7566ZM8.49503 13.321L7.50569 12.1935C6.81307 12.8013 6.36876 13.641 6.25227 14.5516L7.74015 14.7419L9.22802 14.9322C9.25215 14.7436 9.34403 14.5716 9.48438 14.4485L8.49503 13.321ZM7.74015 14.7419L6.26107 14.4923C6.2964 14.2829 6.41115 14.097 6.57919 13.972L7.47452 15.1755L8.36985 16.379C8.82002 16.0441 9.12537 15.5476 9.21923 14.9915L7.74015 14.7419ZM7.47452 15.1755L6.58024 13.9712C6.74623 13.848 6.95666 13.7901 7.17066 13.8174L6.98136 15.3054L6.79206 16.7934C7.3555 16.8651 7.92001 16.713 8.36881 16.3798L7.47452 15.1755ZM6.98136 15.3054L7.17067 13.8174C7.38537 13.8447 7.57496 13.954 7.70435 14.1144L6.53702 15.0564L5.36969 15.9983C5.7203 16.4328 6.22791 16.7216 6.79205 16.7934L6.98136 15.3054ZM6.53702 15.0564L7.70444 14.1145C7.83408 14.2752 7.90055 14.4835 7.88212 14.6983L6.38761 14.57L4.8931 14.4418C4.84459 15.0071 5.01901 15.5637 5.36961 15.9982L6.53702 15.0564ZM6.38761 14.57L7.87523 14.7623C7.94189 14.2467 8.19503 13.7722 8.58702 13.4287L7.59855 12.3005L6.61008 11.1723C5.66936 11.9964 5.06048 13.1362 4.89999 14.3777L6.38761 14.57ZM7.59855 12.3005L8.58701 13.4287C8.97857 13.0857 9.48155 12.8974 10.0019 12.8991L10.0068 11.3991L10.0116 9.89914C8.76038 9.8951 7.55106 10.3479 6.61008 11.1723L7.59855 12.3005ZM10.0068 11.3991L10.0018 12.8991C10.523 12.9009 11.0254 13.0926 11.4141 13.4378L12.4101 12.3161L13.406 11.1945C12.4698 10.3632 11.2624 9.9033 10.0117 9.89914L10.0068 11.3991ZM12.4101 12.3161L11.4141 13.4377C11.8034 13.7835 12.0532 14.2594 12.1165 14.7759L13.6054 14.5935L15.0942 14.411C14.9421 13.1689 14.3415 12.0252 13.406 11.1945L12.4101 12.3161ZM13.6054 14.5935L12.1168 14.7778C12.1023 14.6612 12.1133 14.5523 12.1396 14.4575L13.5849 14.8591L15.0301 15.2607C15.1045 14.9931 15.1305 14.7037 15.094 14.4091L13.6054 14.5935ZM13.5849 14.8591L12.1397 14.4572C12.1674 14.3575 12.2153 14.2597 12.285 14.171L13.4648 15.0974L14.6445 16.0238C14.825 15.7939 14.9543 15.5335 15.03 15.261L13.5849 14.8591ZM13.4648 15.0974L12.2855 14.1704C12.3528 14.0848 12.4358 14.0141 12.5292 13.9618L13.2626 15.2702L13.996 16.5787C14.2456 16.4388 14.4661 16.2508 14.644 16.0244L13.4648 15.0974ZM13.2626 15.2702L12.5295 13.9616C12.6263 13.9073 12.7302 13.8746 12.8348 13.8624L13.0087 15.3523L13.1826 16.8421C13.4654 16.8091 13.7424 16.7208 13.9957 16.5789L13.2626 15.2702ZM13.0087 15.3523L12.9499 13.8534L12.9384 13.8539L12.9971 15.3527L13.0559 16.8516L13.0675 16.8511L13.0087 15.3523Z" fill="black" mask="url(#path-3-inside-1_1299_399)"/>
</svg>
