<svg width="17" height="17" viewBox="0 0 17 17" fill="none" xmlns="http://www.w3.org/2000/svg">
<path d="M11.0107 14.8564C11.4701 14.0083 11.8471 12.9519 12.0947 11.75H4.90625C5.15383 12.9518 5.52992 14.0083 5.98926 14.8564C6.80658 16.3654 7.69752 16.9287 8.36914 16.9932L8.5 17C9.18382 17 10.1391 16.4657 11.0107 14.8564Z" fill="black"/>
<path d="M5.1084 16.2939C4.32023 15.1229 3.71442 13.5531 3.37891 11.75H0.644531C1.48651 13.7827 3.09451 15.4163 5.1084 16.2939Z" fill="black"/>
<path d="M11.8906 16.2939C13.905 15.4165 15.5133 13.783 16.3555 11.75H13.6221C13.2865 13.5535 12.679 15.1228 11.8906 16.2939Z" fill="black"/>
<path d="M3.08398 8.5C3.08398 7.90306 3.11464 7.31817 3.16895 6.75H0.181641C0.0634623 7.31472 0 7.90017 0 8.5C2.52932e-05 9.09995 0.0633909 9.68518 0.181641 10.25H3.16895C3.1146 9.68172 3.084 9.09707 3.08398 8.5Z" fill="black"/>
<path d="M12.416 8.5C12.416 7.89759 12.384 7.31245 12.3252 6.75H4.6748C4.61603 7.31243 4.58398 7.89761 4.58398 8.5C4.584 9.10252 4.61599 9.68746 4.6748 10.25H12.3252C12.384 9.68744 12.416 9.10254 12.416 8.5Z" fill="black"/>
<path d="M17 8.5C17 7.90014 16.9366 7.31475 16.8184 6.75H13.832C13.8863 7.31816 13.916 7.90308 13.916 8.5C13.916 9.09705 13.8864 9.68173 13.832 10.25H16.8184C16.9366 9.68515 17 9.09998 17 8.5Z" fill="black"/>
<path d="M3.37891 5.25C3.71436 3.44676 4.31924 1.87622 5.10742 0.705078C3.09367 1.58284 1.48634 3.21728 0.644531 5.25H3.37891Z" fill="black"/>
<path d="M11.0107 2.14355C10.139 0.533988 9.18387 0 8.5 0C7.81614 0.000111223 6.86091 0.534155 5.98926 2.14355C5.52993 2.99182 5.15379 4.04805 4.90625 5.25H12.0947C11.8472 4.04792 11.4701 2.99188 11.0107 2.14355Z" fill="black"/>
<path d="M16.3555 5.25C15.5134 3.21667 13.9053 1.58261 11.8906 0.705078C12.6792 1.87636 13.2865 3.44615 13.6221 5.25H16.3555Z" fill="black"/>
</svg>
