<svg width="22" height="18" viewBox="0 0 22 18" fill="none" xmlns="http://www.w3.org/2000/svg">
<mask id="path-1-inside-1_1299_413" fill="white">
<path d="M11 0C17.0748 0.000163253 21.9997 3.67885 22 8.2168C22 12.7549 17.0749 16.4344 11 16.4346C9.33368 16.4346 7.75423 16.1555 6.33887 15.6602L2.55176 17.7305C1.77079 18.1572 0.86253 17.4277 1.11133 16.5732L2.12891 13.0752C0.790936 11.7143 0 10.0348 0 8.2168C0.000298066 3.67875 4.92505 0 11 0Z"/>
</mask>
<path d="M11 0L11 -1.5H11V0ZM22 8.2168H23.5V8.2167L22 8.2168ZM11 16.4346V17.9346H11L11 16.4346ZM6.33887 15.6602L6.83439 14.2444L6.20472 14.024L5.61935 14.344L6.33887 15.6602ZM2.55176 17.7305L3.27098 19.0468L3.27127 19.0466L2.55176 17.7305ZM1.11133 16.5732L2.55152 16.9926L2.55163 16.9922L1.11133 16.5732ZM2.12891 13.0752L3.5692 13.4942L3.81468 12.6503L3.19855 12.0236L2.12891 13.0752ZM0 8.2168L-1.5 8.2167V8.2168H0ZM11 0L11 1.5C13.7456 1.50007 16.1732 2.33336 17.8803 3.60847C19.5871 4.88341 20.4999 6.5285 20.5 8.2169L22 8.2168L23.5 8.2167C23.4998 5.36714 21.95 2.90391 19.6756 1.20498C17.4014 -0.49377 14.3292 -1.49991 11 -1.5L11 0ZM22 8.2168H20.5C20.5 9.90529 19.5872 11.5506 17.8804 12.8257C16.1733 14.1011 13.7456 14.9345 11 14.9346L11 16.4346L11 17.9346C14.3293 17.9345 17.4017 16.9281 19.6759 15.2291C21.9503 13.5299 23.5 11.0664 23.5 8.2168H22ZM11 16.4346V14.9346C9.50016 14.9346 8.08838 14.6833 6.83439 14.2444L6.33887 15.6602L5.84334 17.0759C7.42007 17.6278 9.16719 17.9346 11 17.9346V16.4346ZM6.33887 15.6602L5.61935 14.344L1.83224 16.4143L2.55176 17.7305L3.27127 19.0466L7.05838 16.9763L6.33887 15.6602ZM2.55176 17.7305L1.83253 16.4141C2.22172 16.2015 2.67633 16.5639 2.55152 16.9926L1.11133 16.5732L-0.328862 16.1539C-0.951273 18.2915 1.31985 20.1129 3.27098 19.0468L2.55176 17.7305ZM1.11133 16.5732L2.55163 16.9922L3.5692 13.4942L2.12891 13.0752L0.688609 12.6562L-0.328969 16.1543L1.11133 16.5732ZM2.12891 13.0752L3.19855 12.0236C2.0867 10.8927 1.5 9.57577 1.5 8.2168H0H-1.5C-1.5 10.4938 -0.504829 12.5359 1.05926 14.1268L2.12891 13.0752ZM0 8.2168L1.5 8.2169C1.50011 6.52842 2.41292 4.88329 4.11969 3.60837C5.82669 2.33326 8.2543 1.5 11 1.5V0V-1.5C7.67075 -1.5 4.59851 -0.493887 2.32433 1.20489C0.0499031 2.90385 -1.49981 5.36713 -1.5 8.2167L0 8.2168Z" fill="black" mask="url(#path-1-inside-1_1299_413)"/>
</svg>
