<svg width="20" height="20" viewBox="0 0 20 20" fill="none" xmlns="http://www.w3.org/2000/svg">
<path d="M1.17383 0.75C1.21133 0.748342 1.24872 0.75206 1.28516 0.759766L1.3916 0.796875L19.0059 9.60352C19.0792 9.6404 19.1405 9.69768 19.1836 9.76758C19.2267 9.83753 19.25 9.91782 19.25 10C19.25 10.0822 19.2267 10.1625 19.1836 10.2324C19.1405 10.3022 19.0791 10.3586 19.0059 10.3955L1.39355 19.2031C1.32605 19.2368 1.25115 19.2534 1.17578 19.25C1.10036 19.2466 1.02714 19.2233 0.962891 19.1836C0.89862 19.1439 0.845414 19.0884 0.808594 19.0225C0.771813 18.9565 0.752007 18.8821 0.751953 18.8066V11.8721L12.0312 10.7578L12.0332 9.26465L0.75 8.12793V1.19336C0.750054 1.11781 0.769821 1.04351 0.806641 0.977539C0.843382 0.911714 0.895874 0.856092 0.959961 0.816406C1.02423 0.776701 1.09836 0.7534 1.17383 0.75Z" stroke="black" stroke-width="1.5"/>
</svg>
