<svg width="16" height="18" viewBox="0 0 16 18" fill="none" xmlns="http://www.w3.org/2000/svg">
<path d="M7.99609 0.75C8.24889 0.75 8.46106 0.820898 8.65625 0.967773L14.8086 5.62695L14.8184 5.63379C14.9503 5.73044 15.0537 5.85248 15.1318 6.00977L15.1328 6.01172C15.2114 6.1685 15.2499 6.33009 15.25 6.50586V16.4404C15.2499 16.5364 15.2231 16.6158 15.1279 16.7109C15.0328 16.8061 14.9535 16.833 14.8574 16.833H10.9893C10.9162 16.8329 10.8907 16.8163 10.8623 16.7881H10.8633C10.8331 16.7578 10.8164 16.7317 10.8164 16.6592V11.209C10.8164 10.7589 10.6554 10.3458 10.3311 10.0215C10.0066 9.69722 9.5936 9.53613 9.14258 9.53613H6.85742C6.4073 9.53613 5.99469 9.69653 5.6709 10.0205C5.3454 10.3446 5.18363 10.7578 5.18359 11.209V16.6602C5.18359 16.7323 5.1676 16.7581 5.13867 16.7871C5.10956 16.8162 5.08398 16.833 5.01172 16.833H1.14258C1.04654 16.833 0.967216 16.8061 0.87207 16.7109C0.776941 16.6158 0.75008 16.5364 0.75 16.4404V6.50586C0.750062 6.33009 0.78857 6.1685 0.867188 6.01172C0.946392 5.85377 1.05038 5.73099 1.18262 5.63379L1.19141 5.62793L7.3457 0.966797L7.34766 0.964844C7.53622 0.8209 7.74356 0.75009 7.99609 0.75Z" stroke="black" stroke-width="1.5"/>
</svg>
