<svg width="20" height="22" viewBox="0 0 20 22" fill="none" xmlns="http://www.w3.org/2000/svg">
<path d="M12.4824 19.4502C12.8078 19.4502 12.9487 19.8159 12.7539 20.0312V20.0322C12.408 20.4147 11.9843 20.7216 11.5098 20.9316C11.0351 21.1417 10.5204 21.25 10 21.25L9.80566 21.2451C9.35191 21.2215 8.9057 21.1155 8.49023 20.9316C8.01575 20.7216 7.59198 20.4147 7.24609 20.0322V20.0312L7.19043 19.9492C7.09331 19.7472 7.21391 19.4845 7.46484 19.4551L7.53906 19.4502H12.4824ZM10.0049 0.75C11.173 0.752126 12.1549 1.52006 12.4727 2.56445L12.5127 2.70898L12.5166 2.72852L12.5811 3.07422L12.8877 3.24512C14.0095 3.87148 14.965 4.75204 15.6758 5.81348C16.2977 6.74234 16.7174 7.78715 16.9102 8.88086L16.9785 9.35254L17.0088 9.65527L17.0264 9.93359V13.1826L17.0352 13.2393L17.0586 13.3896L17.0605 13.4004L17.0625 13.4121C17.2495 14.4086 17.8059 15.298 18.6201 15.9062L18.6416 15.9219L18.8271 16.0508L18.8662 16.0762L19.0469 16.1846L19.0566 16.1914L19.0684 16.1973C19.1621 16.2499 19.205 16.3104 19.2266 16.3623C19.2505 16.42 19.2579 16.4925 19.2412 16.5693C19.2079 16.7226 19.101 16.8267 18.9463 16.8457L18.8701 16.8496H1.11328C0.749591 16.8496 0.641719 16.4255 0.879883 16.2324L0.931641 16.1973C1.44982 15.9069 1.89845 15.5074 2.24512 15.0264C2.59179 14.5453 2.82828 13.9942 2.9375 13.4121L2.94043 13.3975L2.94238 13.3838L2.96582 13.2266L2.97363 13.1719V13.1162L2.97461 9.88477C3.03651 8.57179 3.42189 7.29302 4.09863 6.16113C4.77341 5.03261 5.71698 4.08358 6.84766 3.39746L7.12305 3.2373L7.40137 3.0752L7.47559 2.76074L7.48633 2.71582C7.6071 2.20882 7.88233 1.74914 8.27637 1.40039C8.66988 1.05223 9.16262 0.830638 9.68848 0.767578L9.84766 0.75293L10.0049 0.75Z" stroke="black" stroke-width="1.5"/>
</svg>
